/* XPM */
static char *_939e1edc2624fd3cdccf03fb35713dbyFsSs06vu4RrkyFo[] = {
/* columns rows colors chars-per-pixel */
"64 64 98 2 ",
"   c #3685BA",
".  c #3789BE",
"X  c #398ABF",
"o  c #7F989A",
"O  c #398CC3",
"+  c #3B92CA",
"@  c #3D96D1",
"#  c #3E99D4",
"$  c #449CD7",
"%  c #419FDD",
"&  c #489FD8",
"*  c #44A1DE",
"=  c #4AA4DE",
"-  c #65A3CC",
";  c #6DA7CD",
":  c #6CAAD2",
">  c #6AADD8",
",  c #70AED7",
"<  c #6BB0DC",
"1  c #72B2DC",
"2  c #78B6DE",
"3  c #7BB8DF",
"4  c #51A7E0",
"5  c #55A9E0",
"6  c #5DADE2",
"7  c #60AFE2",
"8  c #6AB3E4",
"9  c #70B7E5",
"0  c #74B9E6",
"q  c #7ABCE7",
"w  c #7FBFE8",
"e  c #829B9D",
"r  c #849EA0",
"t  c #86A1A3",
"y  c #89A4A6",
"u  c #8BA6A8",
"i  c #8EA9AB",
"p  c #92A7A9",
"a  c #92ACAE",
"s  c #92AFB1",
"d  c #98AFB1",
"f  c #95B1B3",
"g  c #9CB3B4",
"h  c #9EB8BA",
"j  c #A0B6B7",
"k  c #A0B6B8",
"l  c #A3BABC",
"z  c #AEBEBF",
"x  c #AEC1C2",
"c  c #B5C6C7",
"v  c #B6C6C8",
"b  c #BAC7C9",
"n  c #B4C8C9",
"m  c #BAC9CA",
"M  c #8FC3E4",
"N  c #85C1E9",
"B  c #8BC4E9",
"V  c #95C9EC",
"C  c #9CCDED",
"Z  c #A5D2EE",
"A  c #A8D1EC",
"S  c #B9DAEF",
"D  c #ABD4F0",
"F  c #BBDDF3",
"G  c #C2CECF",
"H  c #C1CFD0",
"J  c #C6D3D4",
"K  c #CBD7D8",
"L  c #CFD9DA",
"P  c #D2DDDD",
"I  c #C0DFF3",
"U  c #D7E0E1",
"Y  c #DDE5E5",
"T  c #C3E1F4",
"R  c #CBE5F5",
"E  c #D5EAF7",
"W  c #D9ECF7",
"Q  c #DDEEF8",
"!  c #E3EAEA",
"~  c #E9EEEE",
"^  c #E0EFF9",
"/  c #EDF1F1",
"(  c #E1F0F9",
")  c #E5F2FA",
"_  c #E8F3FA",
"`  c #EBF5FB",
"'  c #EEF6FC",
"]  c #F0F3F4",
"[  c #F3F6F6",
"{  c #F4F6F7",
"}  c #F5F7F8",
"|  c #F0F7FC",
" . c #F6F8F8",
".. c #F3F9FD",
"X. c #F6FBFD",
"o. c #F8FAFA",
"O. c #FBFCFC",
"+. c white",
/* pixels */
"y y y y y y y y y y y y y y y y y y y y y y y y y y y y y y y y y y y y y y t o o o o o o o o o t y y y y y y y y y y y y y y y ",
"y y y y y y y y y y y y y y y y y y y y y y y y y y y y y y y y y y y y y y r o o o o o o o o o t y y y y y y y y y y y y y y y ",
"y y y y y y r e t y y y y y y y y y y y y y y y y y y y y y y y y y y y y y r o o o o o o o o o y y y y y y y y y y y y y y y y ",
"y y y t e o o o e y y y y y y y y y u i y y y y y y y y y y y y y y y y y y e o o o o o o o o o y y y y y y y y y y y y y y y y ",
"y y y e o o o o o t y y y y y y y y s s i y y y y y y y y y y y y y y y y y e o o o o o o o o e y y y y y y y y y y y y y y y y ",
"y y y r o o o o o e y y y y y y y a s s s a y y y y y y y y y y y y y y y y y y y t t r r e e e y y y y y y y y y y y y y y y y ",
"y y y y e o o o o o t y y y y y a s s s s s a u y y y y y y y y y y y y y y y y y y y y y y y y y y y y y y y y y y y y y y y y ",
"y y y y r o o e r y y y y y y a s s s s s s s s u y y y y y y y y y y y y y y y y y y y y y y y y y y y y y y y y y y y y y y y ",
"y y y y y e t y y y y y y y i s s s s s s s s s s i y y y y y y y y y y y y y y y y y y y y y y y y y y y y y y y y y y y y y y ",
"y y y y y y y y y y y y y i s s s s s s s s s s s s y y y y y y y y y y y y y y y y y y y y y y y y y y y y y y y y y y y y y y ",
"y y y y y y y y y y y y y i s s s s s s s s s s s u y y y y y y y y y y y y y y y y y y y y y y y y y y y y y y y y y y y y y y ",
"y y y y y y y y y y y y y y i s s s s s s s s s i y y y y y y y y y y y y y y y y y y y y y y y y y y y y y y y y y y y y y y y ",
"y y y y y y y y y y y y y y y i s s s s s s s i y y y y y y y y y y y y y y y y y y y y y y y y y y y y y y y y y y y y y y y y ",
"y y y y y y y y y y y y y y y y u s s s s s i y y y y y y y y y y y y y y y y y y y y y y y y y y y y y y y y y y y y y y y y y ",
"y y y y y y y y y y y y y y y y y u s s s i y y y y y y y y y y y y y y y y y y y y y y y y y y y y y y y y y y y y y y y y y y ",
"y y y y y y y y y y y y y y y y y y u s i y y y y y y y y y y y y y y y y y y y y y y y y y y y y y y y y y y y y y y y y y y y ",
"y y y y y y y y y y y y y y y y y y y y y y y y y y y y y y y y y y y y y y y y y y y y y y y y y y y y y y y y y y y y y y y y ",
"y y y y y y y y y y y y y y y y y y y y y y y y y y y y y y y y y y y y y y y y y y y y y y y y y y y y y y y y y y y y y y y y ",
"y y y y y y y y y y y y y y y y y i x J P P P P L v d y y y y y y y y y y y y y y y y y y y y y y y y y y y y y y y y y y y y y ",
"y y y y y y y y y y t r t y y i m / { o.O.O.O.O.o.} ] L d y y y y y y y y y y y y y y y y y y y y y y y y y y y y y y y y y y y ",
"y y y y y y y y y y e o o o e P { +.+.+.+.+.+.+.+.+.+.o.~ a y y y y y y y y y y y y y y y y y y y t e y y y y y y y y y y y y y ",
"y y y y y y y y y y e o o o G o.+.+.( Z N N N N C R +.+.+.Y d y y y y y y y y y y y y y y y y y t o o e y y y y y y y y y y y y ",
"y y y y y y y y y y o o o b  .+.+.Z 6 = = = = = = 5 q O.+.+.~ g y y y y y y y y y y y y y y y y e o o o e y y y y y y y y y y y ",
"y y y y y y y y y t o o l { +.+.T 4 % % % % % % % % * V O.+.+.U u y y y y y y y y y y y y y y e o o o o o e y y y y y y y y y y ",
"y y y y y y y y y e o y ~ +.+.T 5 % % % % % % % % % % = V O.+.O.l y y y y y y y y y y y y y t o o o o o o e y y y y y y y y y y ",
"y y y y y y y y y e o G +.+.( 5 % % % % % % % % % % % % = D +.+.~ u y y y y y y y y y y y y y t o o o o e y y y y y y y y y y y ",
"y y y y y y y y y o e { +.+.N * % % % % % % % % % % % % % = ) +.+./ / / / / / / / / / / / / / / Y P m t y y y y y y y y y y y y ",
"y y y y y y y y t o z +.+.( = % % % % % % % % % % % % % % % C +.+.+.+.+.+.+.+.+.+.+.+.+.+.+.+.+.+.O. .Y g y y y y y y y y y y y ",
"y y y y y y y y e o L +.+.Z * % % % % % 0 Q ( C * % % % % % 7 O.+.+.+.+.+.+.+.+.+.+.+.+.+.+.+.+.+.+.+.+.Y u y y y y y y y y y y ",
"y y y y y y y y t r ~ +.+.q * % % % % = Q +.+...8 * % % % % * 6 6 6 6 6 6 6 6 6 6 6 6 6 6 6 6 6 9 B Q +.+.l y y y y y y y y y y ",
"y y y y y y y y y y o.+.+.= % % % % % N O.+.+.+.F * % % % % % % % % % % % % % % % % % % % % % % * = V O.+.P u y y y y y y y y y ",
"y y y y y y y y y y O.+.+.= % % % % % T +.+.+.+.X.* % % % % % % % % % % % % % % % % % % % % % % % % = O.+.o.u y y y y y y y y y ",
"y y y y y y y y y y O.+.+.= % % % % % R +.+.+.+.+.= % % % % % % % % % % % % % % % % % % % % % % % % % O.+.+.u y y y y y y y y y ",
"y y y y y y y y y y O.+.+.= % % % % % R +.+.+.+.` * % % % % % % % % % % % % % % % % % % % % % % % % = O.+.+.u y y y y y y y y y ",
"r r y y y y y y y y O.+.+.4 % % % % % C +.+.+.+.T * % % % % % % % % % % % % % % % % % % % % % % % % q O.+./ u y y y y y y t t t ",
"o o t y y y y y y y ! +.+.9 * % % % % 7 | +.+.+.w * % % % % % 8 8 8 8 8 8 = # # # # # # # # # # & q ` +.+.K u y y y y y t o o o ",
"o o t y y y y y y y P +.+.C * % % % % * C +.+.R = % % % % % 5 ) ` ` ` ` ` -                     - _ +.+./ f y y y y y y y o o o ",
"o o r y y y y y y y m +.+.E * % % % % % = q N 5 % % % % % % B O.+.+.+.+.+.;                     - O.+.[ j y y y y y y y y o o o ",
"o o e y y y y y y y a O.+.O.6 % % % % % % * = % % % % % % % E +.+./ o.+.+.: X . . . . . . . . . - O.+.! u y y y y y y y y o o o ",
"o e e y y y y y y y y U +.+.I * % % % % % % % % % % % % % N X.+.o.k ! +.+.: O O O O O O O O O O : O.+.! u y y y y y y y y e o o ",
"y y y y y y y y y y y l +.+.O.N * % % % % % % % % % % % 6 ^ +.+.J u Y +.+., + + + + + + + + + + : O.+.! u y y y y y y y y t t t ",
"y y y y y y y y y y y u P +.+.' q * % % % % % % % % % 5 W +.+.[ a y Y +.+.1 + + + + + + + + + + > O.+.! u y y y y y y y y y y y ",
"y y y y y y y y y y y y f P +.+.( B * % % % % % % % 6 R +.+.o.c y y Y +.+.1 $ @ @ 2 M M 3 @ @ @ < O.+.! u y y y y y y y y y y y ",
"y y y y y y y y y y y y y a ! +.+.| F 0 * % % % 6 Z ) O.+.+.H i y y P +.+.S $ $ # R ` | W $ # # A +.+.Y u y y y y y y y y y y y ",
"y y y y y y y y y y y y y y g Y +.+.O.` ( ( ( ( _ X.+.+.o.m a y y y m +.+.X.) ( ( O.+.+.+.( ( ( X.+.+.J y y y y y y y y y y y y ",
"y y y y y y y y y y y y y y y a J  .+.+.+.+.+.+.+.+.+.~ x i y y y y i ~ +.+.+.+.+.+.+.+.+.+.+.+.+.+.o.g y y y y y y y y y y y y ",
"y y y y y y y y y y y y y y y y a g P [ +.+.+.+.+.! c d u y y y y y y g U +.+.+.+.+.+.+.+.+.+.+.+.~ n a y y y y y y y y y y y y ",
"y y y y y y y y y y y y y y y y y y a p p p p p p u t t t y y y y y y y a f f f f f f g l l l l l h f s y y y y y y y y y y y y ",
"y y y y y y y y y y y y y y y y y y y e o o o o o o o o o r y y y y y y y y y y y y y y s s s s s s s s u y y y y y y y y y y y ",
"y y y y y y y y y y y y y y y y y y y o o o o o o o o o o t y y y y y y y y y y y y y y i s s s s s s i u y y t t t y y y y y y ",
"y y y y y y y y y y y y y y y y y y t o o o o o o o o o o y y y y y y y y y y y y y y y i s s s i i y y y y y e o o o o e y y y ",
"y y y y y y y y y y y y y y y y y y e o o o o o o o o o e y y y y y y y y y y y y y y y y i i y y y y y y y y o o o o o r y y y ",
"y y y y y y y y y y y y y y y y y y e o o o o o o o o o r y y y y y y y y y y y y y y y y y y y y y y y y y y o o o o o r y y y ",
"y y y y y y y y y y y y y y y y y y o o o o o o o o o o t y y y y y y y y y y y y y y y y y y y y y y y y y y o o o o o t y y y ",
"y y y y y y y y y y y y y y y y y t o o o o o o o o o o y y y y y y y y y y y y y y y y y y y y y y y y y y t o o o o o t y y y ",
"y y y y y y y y y y y y y y y y y r e o o o o o o o o e y y y y y y y y y y y y y y y y y y y y y y y y y y y t t r r r y y y y ",
"y y y u i i i u y y y y y y y y y y y y t e e o o o o e y y y y y y y y y y y y y y y y y y y y y y y y y y y y y y y y y y y y ",
"y u s s s s s i y y y y y y y y y y y y y y y y t r e t y y y y y y y y y y y y y y y y y y y y y y y y y y y y y y y y y y y y ",
"y y s s s s s i y y y y y y y y y y y y y y y y y y y y y y y y y y y y y y y y y y y y y y y y y y y y y y y y y y y y y y y y ",
"y y i s s s s i y y y y y y y y y y y y y y y y y y y y y y y y y y y y y y y e e e r t t y y y y y y y y y y y y y y y y y y y ",
"y y i s s s s a y y y y y y y y y y y y y y y y y y y y y y y y y y y y y y y e o o o o o o o e e y y y y y y y y y y y y y y y ",
"y y i s s s a i y y y y y y y y y y y y y y y y y y y y y y y y y y y y y y y o o o o o o o o o e y y y y y y y y y y y y y y y ",
"y y y u y y y y y y y y y y y y y y y y y y y y y y y y y y y y y y y y y y y o o o o o o o o o e y y y y y y y y y y y y y y y ",
"y y y y y y y y y y y y y y y y y y y y y y y y y y y y y y y y y y y y y y t o o o o o o o o o r y y y y y y y y y y y y y y y "
};
