/* XPM */
static char *a0ec09df4efb451b86932580df185802aguD2ayj43TbFVO6[] = {
/* columns rows colors chars-per-pixel */
"64 64 129 2 ",
"   c #E76A17",
".  c #E86A17",
"X  c #E56C1B",
"o  c #E86C1B",
"O  c #DD6F25",
"+  c #DF7126",
"@  c #D6712C",
"#  c #DA722B",
"$  c #CF7537",
"%  c #C9773C",
"&  c #CD793E",
"*  c #D57532",
"=  c #D27738",
"-  c #D1793B",
";  c #E16E21",
":  c #E97223",
">  c #EA772B",
",  c #EA792F",
"<  c #EB7C34",
"1  c #BC7D4D",
"2  c #B77F53",
"3  c #B97E51",
"4  c #C47B45",
"5  c #CA7C43",
"6  c #C67F4A",
"7  c #C87F4A",
"8  c #EB813B",
"9  c #B48057",
"0  c #BF8355",
"q  c #B4835B",
"w  c #B8875E",
"e  c #B9885F",
"r  c #9F8A72",
"t  c #948E7F",
"y  c #9A8E7B",
"u  c #AB8563",
"i  c #A58769",
"p  c #A88768",
"a  c #AD8D6E",
"s  c #B68760",
"d  c #B58963",
"f  c #BD8C63",
"g  c #B18C6A",
"h  c #B6916E",
"j  c #A08971",
"k  c #AB8F72",
"l  c #A79077",
"z  c #A99075",
"x  c #A5927B",
"c  c #AB947A",
"v  c #AD987E",
"b  c #B39475",
"n  c #C4804E",
"m  c #CC8049",
"M  c #C38353",
"N  c #C2885B",
"B  c #EB8440",
"V  c #EC8846",
"C  c #ED8D4E",
"Z  c #ED8F51",
"A  c #EE9155",
"S  c #EE945A",
"D  c #EF985F",
"F  c #EF9A62",
"G  c #F09D67",
"H  c #F09F6B",
"J  c #F0A16C",
"K  c #F1A776",
"L  c #F1AA7B",
"P  c #7F989A",
"I  c #8C928A",
"U  c #979081",
"Y  c #9E9785",
"T  c #9D9788",
"R  c #979A8E",
"E  c #9B998B",
"W  c #839694",
"Q  c #819B9D",
"!  c #959C93",
"~  c #919F99",
"^  c #A19582",
"/  c #A69F8D",
"(  c #8EA09E",
")  c #91A09C",
"_  c #9EA59B",
"`  c #A4A08F",
"'  c #A2A293",
"]  c #849EA0",
"[  c #86A1A3",
"{  c #89A4A6",
"}  c #8AA6A8",
"|  c #8EAAAC",
" . c #9BA7A0",
".. c #97AAA6",
"X. c #92ACAD",
"o. c #92AFB1",
"O. c #F2AE81",
"+. c #F2B085",
"@. c #F3B68D",
"#. c #F4B992",
"$. c #F4BA94",
"%. c #F4BC96",
"&. c #F5BE9A",
"*. c #F5C19F",
"=. c #F5C3A1",
"-. c #F6C5A4",
";. c #F5C7A8",
":. c #F6C9AB",
">. c #F7C9AC",
",. c #F7CDB2",
"<. c #F8D5BE",
"1. c #F9D8C2",
"2. c #F9DAC7",
"3. c #F9DCCA",
"4. c #FADFCE",
"5. c #FAE0D0",
"6. c #FAE3D5",
"7. c #FAE5D7",
"8. c #FBE7DA",
"9. c #FCE9DD",
"0. c #FCEDE2",
"q. c #FCEEE4",
"w. c #FCF0E8",
"e. c #FDF3EC",
"r. c #FDF4EF",
"t. c #FEF7F3",
"y. c #FEFBF8",
"u. c #FEFCFA",
"i. c white",
/* pixels */
"{ { { { { { { { { { { { { { { { { { { { { { { { { { { { { { { { { { { { { { [ P P P P P P P P P [ { { { { { { { { { { { { { { { ",
"{ { { { { { { { { { { { { { { { { { { { { { { { { { { { { { { { { { { { { { ] P P P P P P P P P [ { { { { { { { { { { { { { { { ",
"{ { { { { { ] Q [ { { { { { { { { { { { { { { { { { { { { { { { { { { { { { ] P P P P P P P P P { { { { { { { { { { { { { { { { ",
"{ { { [ Q P P P Q { { { { { { { { { } | { { { { { { { { { { { { { { { { { { Q P P P P P P P P P { { { { { { { { { { { { { { { { ",
"{ { { Q P P P P P [ { { { { { { { { o.o.| { { { { { { { { { { { { { { { { { Q P P P P P P P P Q { { { { { { { { { { { { { { { { ",
"{ { { ] P P P P P Q { { { { { { { X.o.o.o.X.{ { { { { { { { { { { { { { { { { { { [ [ ] ] Q Q Q { { { { { { { { { { { { { { { { ",
"{ { { { Q P P P P P [ { { { { { X.o.o.o.o.o.X.} { { { { { { { { { { { { { { { { { { { { { { { { { { { { { { { { { { { { { { { { ",
"{ { { { ] P P Q ] { { { { { { X.o.o.o.o.o.X./ v ! { { { { { { { { { { { { { { { { { { { { { { { { { { { { { { { { { { { { { { { ",
"{ { { { { Q [ { { { { { { { | o.o.o.o.o. .b f f v } { { { { ( ! Y x d n 6 6 6 6 6 0 z ) { { { { { { { { { { { { { { { { { { { { ",
"{ { { { { { { { { { { { { | o.o.o.o.o...b f f f h ..{ { E d 5 * ; . . . . . . . . .   g { { { { { { { { { { { { { { { { { { { { ",
"{ { { { { { { { { { { { { | o.o.o.o.X.h f f f f h { l & ; X . . . . . . . . . . . .   g { { { { { { { { { { { { { { { { { { { { ",
"{ { { { { { { { { { { { { { | o.o.X.v f f f f f M = . . . . . . . . . . . . . . .   - { { { { { { { { { { { { { { { { { { { { { ",
"{ { { { { { { { { { { { { { { | X./ f f f f N & ; . . . . . . . . . . . . . . .   5 ~ { { { { { { { { { { { { { { { { { { { { { ",
"{ { { { { { { { { { { { { { { { ) g f f f M +   . . . . . . . . . . . . . . . . # s Y ( { { { { { { { { { { { { { { { { { { { { ",
"{ { { { { { { { { { { { { { { { a e f f m X . . . . . . . . . . . . . . . . . . X 5 w s x ~ { { { { { { { { { { { { { { { { { { ",
"{ { { { { { { { { { { { { { { ^ w w 0 -   . . . . . . . . . . . . . . . . . . . . . # 6 w s x ! { { { { { { { { { { { { { { { { ",
"{ { { { { { { { { { { { { { ~ g w 0 *   . . . . . . . . , B B B B 8 : . . . . . . . . X & w w g x ( { { { { { { { { { { { { { { ",
"{ { { { { { { { { { { { { { x w w *   . . . . . . : L 0.i.i.i.i.i.i.i.3.D o . . . . . . . 5 w w w g ~ { { { { { { { { { { { { { ",
"{ { { { { { { { { { { { { ( g w * . . . . . o C =.r.i.i.i.i.i.i.i.i.i.i.i.6.K < o . . . . . 4 w w w d Y { { { { { { { { { { { { ",
"{ { { { { { { { E x R ] [ E w = . . . . . , %.0.i.i.i.i.i.i.i.i.i.i.i.i.i.i.u.3.F o . . . . X 5 w w w s x ( { { { { { { { { { { ",
"{ { { { { { { ! = X # r Q i 5   . . . . < 1.i.i.i.i.i.i.i.i.i.i.i.i.i.i.i.i.i.i.t.G . . . . . X 0 w q w w z { { { { { { { { { { ",
"{ { { { { { { x ; . . X u 1 O . . . . : *.i.i.i.i.i.i.i.i.i.i.i.i.i.i.i.i.i.i.i.i.r.C . . . . . X 1 q q w w l { { { { { { { { { ",
"{ { { { { { { x ; . . .   @   . . . o $.u.i.i.i.i.i.i.i.i.i.i.i.i.i.i.i.i.i.i.i.i.i.q.Z . . . . . # 2 q q w w E { { { { { { { { ",
"{ { { { { { { x ; . . . .   . . . . F y.i.i.i.i.i.i.i.i.i.i.i.i.i.i.i.i.i.i.i.i.i.i.i.<., . . . .   % 9 q q w g { { { { { { { { ",
"{ { { { { { { x ; . . . . . . . . > 5.i.i.i.i.i.i.i.i.i.i.i.i.i.i.i.i.i.i.i.i.i.i.i.i.u.K . . . . . O 3 q q s x { { { { { { { { ",
"{ { { { { { { x ; . . . . . . . . J t.i.i.i.i.i.i.i.i.i.i.i.i.i.i.i.i.i.i.i.i.i.i.i.i.i.8.: . . . . . 4 U T ! { { { { { { { { { ",
"{ { { { { { { ^ + . . . . . . . : >.i.i.i.i.i.i.i.i.i.i.i.i.i.i.i.i.i.i.i.i.i.i.i.i.i.i.i.J . . . . . ; ~ { { { { { { { { { { { ",
"{ { { { { { { E # . . . . . . . < w.i.i.i.i.i.i.i.i.i.i.i.i.i.i.i.i.i.i.i.i.i.i.i.i.i.i.i.7.. . . . . . s { { { { { { { { { { { ",
"{ { { { { { { ! * . . . . . . . Z i.i.i.i.i.i.i.i.i.i.i.i.i.i.i.i.i.i.i.i.i.i.i.i.i.i.i.i.i.: . . . . . # ~ { { { { { { { { { { ",
"{ { { { { { { { & . . . . . . . O.i.i.i.i.i.i.i.i.i.i.i.i.i.i.i.i.i.i.i.i.i.i.i.i.i.i.i.i.i.C . . . . . X z { { { { { { { { { { ",
"{ { { { { { { { 0 . . . . . . . &.i.i.i.i.i.i.i.i.i.i.i.i.i.i.i.i.i.i.i.i.i.i.i.i.i.i.i.i.i.H . . . . . . n { { { { { { { { { { ",
"{ { { { { { { { a . . . . . . . &.i.i.i.i.i.i.i.i.i.i.i.i.i.i.i.i.i.i.i.i.i.i.i.i.i.i.i.i.i.J . . . . . . - ~ { { { { { { { { { ",
"{ { { { { { { { ! . . . . . . . &.i.i.i.i.i.i.i.i.i.i.i.i.i.i.i.i.i.i.i.i.i.i.i.i.i.i.i.i.i.J . . . . . . # E { { { { { { { { { ",
"{ { { { { { { { { @ . . . . . . +.i.i.i.i.i.i.i.i.i.i.i.i.i.i.i.i.i.i.i.i.i.i.i.i.i.i.i.i.i.S . . . . . .   x { { { { { { { { { ",
"] ] { { { { { { { k . . . . . . F i.i.i.i.i.i.i.i.i.i.i.i.i.i.i.i.i.i.i.i.i.i.i.i.i.i.i.i.i.8 . . . . . . . s { { { { { { [ [ [ ",
"P P [ { { { { { { { # . . . . . 8 t.i.i.i.i.i.i.i.i.i.i.i.i.i.i.i.i.i.i.i.i.i.i.i.i.i.i.i.w.o . . . . . . . M { { { { { [ P P P ",
"P P [ { { { { { { { w . . . . . > 4.i.i.i.i.i.i.i.i.i.i.i.i.i.i.i.i.i.i.i.i.i.i.i.i.i.i.i.;.. . . . . . . . 5 { { { { { { P P P ",
"P P ] { { { { { { { Y # . . . . o #.i.i.i.i.i.i.i.i.i.i.i.i.i.i.i.i.i.i.i.i.i.i.i.i.i.i.u.< . . . . . . . . * { { { { { { P P P ",
"P P Q { { { { E x k a -   . . . . C q.i.i.i.i.i.i.i.i.i.i.i.i.i.i.i.i.i.i.i.i.i.i.i.i.i.,.o . . . . . . . . * { { { { { { P P P ",
"P Q Q { { { ~ s w w w 0 X . . . . o :.i.i.i.i.i.i.i.i.i.i.i.i.i.i.i.i.i.i.i.i.i.i.i.i.q.S . . . . . . . . . * { { { { { { Q P P ",
"{ { { { { { ~ s w w w w 6 . . . . . : r.i.i.i.i.i.i.i.i.i.i.i.i.i.i.i.i.i.i.i.i.i.i.i.#.o . . . .   . . . . * { { { { { { [ [ [ ",
"{ { { { { { { Y s w w w w *   . . . . V 0.i.i.i.i.i.i.i.i.i.i.i.i.i.i.i.i.i.i.i.i.u.,.> . . . . ; M *   . . * { { { { { { { { { ",
"{ { { { { { { { Y s w w w 0 # . . . . . A 5.i.i.i.i.i.i.i.i.i.i.i.i.i.i.i.i.i.i.t.@.: . . . . X 7 c E = . . 6 { { { { { { { { { ",
"{ { { { { { { { { R s w w w n X . . . . . 8 w.i.i.i.i.i.i.i.i.i.i.i.i.i.i.i.i.y.@.o . . . . . = f _ | ( 0 - ^ { { { { { { { { { ",
"{ { { { { { { { { { ! g w w w 5 X . . . . . > -.e.i.i.i.i.i.i.i.i.i.i.i.i.y.9.K o . . . . . # N h o.o.{ { { { { { { { { { { { { ",
"{ { { { { { { { { { { ! k w w w 5 X . . . . . : D :.e.i.i.i.i.i.i.i.i.i.8.@.B . . . . . . + M f ' o.o.} { { { { { { { { { { { { ",
"{ { { { { { { { { { { { { Y s w w 6 X . . . . . . : 8 J >.4.4.4.4.2.&.S < o . . . . . . + N f b X.o.o.| { { { { { { { { { { { { ",
"{ { { { { { { { { { { { { { ~ k s w n ; . . . . . . . . . . . . . . . . . . . . . .   # N f f ' o.o.o.o.{ { { { { { { { { { { { ",
"{ { { { { { { { { { { { { { { { E k s 1 *   . . . . . . . . . . . . . . . . . . .   * 0 f f b ..o.o.o.o.} { { { { { { { { { { { ",
"{ { { { { { { { { { { { { { { { { { ! r q 4   . . . . . . . . . . . . . . . . . X 5 w w f f  .o.o.o.o.| } { { [ [ [ { { { { { { ",
"{ { { { { { { { { { { { { { { { { { [ P I % . . . . . . . . . . . . . . . .   O n w w w f ` o.o.| | { { { { { Q P P P P Q { { { ",
"{ { { { { { { { { { { { { { { { { { Q W 1   . . . . . . . . . . . . . . X # & w w w w w z X.| { { { { { { { { P P P P P ] { { { ",
"{ { { { { { { { { { { { { { { { { { Q p X . . . . . . . . . . . . . . & x x w w w w w a ~ { { { { { { { { { { P P P P P ] { { { ",
"{ { { { { { { { { { { { { { { { { { P $ . . . . . . . . . . . . . & ^ { { E s w w w s ~ { { { { { { { { { { { P P P P P [ { { { ",
"{ { { { { { { { { { { { { { { { { [ P q # ; ; ; ; ; ; O * = 6 g ~ { { { { E s w w a ~ { { { { { { { { { { { [ P P P P P [ { { { ",
"{ { { { { { { { { { { { { { { { { ] Q Q t r j j j j r y ! ) { { { { { { { ( g w z ~ { { { { { { { { { { { { { [ [ ] ] ] { { { { ",
"{ { { } | | | } { { { { { { { { { { { { [ Q Q P P P P Q { { { { { { { { { { ~ ~ ( { { { { { { { { { { { { { { { { { { { { { { { ",
"{ } o.o.o.o.o.| { { { { { { { { { { { { { { { { [ ] Q [ { { { { { { { { { { { { { { { { { { { { { { { { { { { { { { { { { { { { ",
"{ { o.o.o.o.o.| { { { { { { { { { { { { { { { { { { { { { { { { { { { { { { { { { { { { { { { { { { { { { { { { { { { { { { { { ",
"{ { | o.o.o.o.| { { { { { { { { { { { { { { { { { { { { { { { { { { { { { { { Q Q Q ] [ [ { { { { { { { { { { { { { { { { { { { ",
"{ { | o.o.o.o.X.{ { { { { { { { { { { { { { { { { { { { { { { { { { { { { { { Q P P P P P P P Q Q { { { { { { { { { { { { { { { ",
"{ { | o.o.o.X.| { { { { { { { { { { { { { { { { { { { { { { { { { { { { { { { P P P P P P P P P Q { { { { { { { { { { { { { { { ",
"{ { { } { { { { { { { { { { { { { { { { { { { { { { { { { { { { { { { { { { { P P P P P P P P P Q { { { { { { { { { { { { { { { ",
"{ { { { { { { { { { { { { { { { { { { { { { { { { { { { { { { { { { { { { { [ P P P P P P P P P ] { { { { { { { { { { { { { { { "
};
