/* XPM */
static char *_59e67a445c941a0c305968c73e3fa7aBnyRrUhBeMHCLp7B[] = {
/* columns rows colors chars-per-pixel */
"64 64 160 2 ",
"   c #374013",
".  c #3C4516",
"X  c #444E1A",
"o  c #46511B",
"O  c #4A551D",
"+  c #4D591F",
"@  c #4F5A20",
"#  c #525E22",
"$  c #556224",
"%  c #596626",
"&  c #5C6927",
"*  c #616F2A",
"=  c #66742D",
"-  c #68762E",
";  c #69782F",
":  c #6D7C31",
">  c #707F32",
",  c #67645F",
"<  c #6B645E",
"1  c #7C6357",
"2  c #786C57",
"3  c #72635B",
"4  c #786358",
"5  c #746A5A",
"6  c #626262",
"7  c #BA653D",
"8  c #D8662F",
"9  c #C46537",
"0  c #CC6534",
"q  c #C36539",
"w  c #D46631",
"e  c #EE6726",
"r  c #E2662B",
"t  c #EA6728",
"y  c #F66723",
"u  c #8D634F",
"i  c #97644C",
"p  c #9B6349",
"a  c #8C754F",
"s  c #90774D",
"d  c #94794B",
"f  c #9B7C48",
"g  c #836354",
"h  c #886352",
"j  c #806F54",
"k  c #857252",
"l  c #887450",
"z  c #A26446",
"x  c #AB6443",
"c  c #B16440",
"v  c #A17F45",
"b  c #728234",
"n  c #7C8D3A",
"m  c #83953D",
"M  c #86983F",
"N  c #B4883D",
"B  c #BB8B39",
"V  c #BEB33E",
"C  c #E99416",
"Z  c #ED9817",
"A  c #E79419",
"S  c #E99619",
"D  c #E6981E",
"F  c #EE9B19",
"G  c #F29D17",
"H  c #F29E19",
"J  c #F6A31A",
"K  c #F9A519",
"L  c #F7AD1F",
"P  c #FFAB1A",
"I  c #D4962E",
"U  c #D9972E",
"Y  c #D6982C",
"T  c #DC9A2D",
"R  c #C28E36",
"E  c #C69134",
"W  c #CE9430",
"Q  c #D09530",
"!  c #DC9E35",
"~  c #D1983B",
"^  c #E19522",
"/  c #E59E27",
"(  c #E89D24",
")  c #E09C28",
"_  c #DEAF2C",
"`  c #DAA43F",
"'  c #DFA93E",
"]  c #D5B032",
"[  c #DAB533",
"{  c #D2B738",
"}  c #E7A024",
"|  c #ECA222",
" . c #EBAF27",
".. c #E8A42E",
"X. c #E5AE28",
"o. c #EDA92D",
"O. c #F1A421",
"+. c #F5AB21",
"@. c #F9AA21",
"#. c #F2AA2A",
"$. c #ECB027",
"%. c #E6A330",
"&. c #E9A630",
"*. c #ECAA31",
"=. c #E2A93C",
"-. c #899B40",
";. c #A48143",
":. c #AA8341",
">. c #8EA143",
",. c #92A545",
"<. c #94A847",
"1. c #97AB48",
"2. c #98AC49",
"3. c #9DB14C",
"4. c #A3B74E",
"5. c #A4B94F",
"6. c #B6B443",
"7. c #BAB441",
"8. c #BDA15D",
"9. c #A6BB50",
"0. c #A9BE52",
"q. c #AF9F6A",
"w. c #B79C61",
"e. c #B89E62",
"r. c #A99E70",
"t. c #B4A36E",
"y. c #BBA76A",
"u. c #AAA077",
"i. c #ACA47A",
"p. c #B5A772",
"a. c #C69C4E",
"s. c #C39D52",
"d. c #CDA54F",
"f. c #D8A340",
"g. c #DAA946",
"h. c #D3A74C",
"j. c #D5A94C",
"k. c #CCA857",
"l. c #C3A45B",
"z. c #C7A85D",
"x. c #C2A762",
"c. c #ACC254",
"v. c #7F989A",
"b. c #8B9A8E",
"n. c #999E83",
"m. c #829B9D",
"M. c #9CA48D",
"N. c #8FA49F",
"B. c #96A394",
"V. c #99A592",
"C. c #92A49B",
"Z. c #A4A484",
"A. c #849EA0",
"S. c #86A1A3",
"D. c #89A4A6",
"F. c #8AA6A8",
"G. c #8CA8AA",
"H. c #8EAAAC",
"J. c #90ACAE",
"K. c #92AFB1",
/* pixels */
"D.D.D.D.D.D.D.D.D.D.D.D.D.D.D.D.D.D.D.D.D.D.D.D.D.D.D.D.D.D.D.D.D.D.D.D.D.D.S.v.v.v.v.v.v.v.v.v.S.D.D.D.D.D.D.D.D.D.D.D.D.D.D.D.",
"D.D.D.D.D.D.D.D.D.D.D.D.D.D.D.D.D.D.D.D.D.D.D.D.D.D.D.D.D.D.D.D.D.D.D.D.D.D.A.v.v.v.v.v.v.v.v.v.S.D.D.D.D.D.D.D.D.D.D.D.D.D.D.D.",
"D.D.D.D.D.D.A.m.S.D.D.D.D.D.D.D.D.D.D.D.D.D.D.D.D.D.D.D.D.D.D.D.D.D.D.D.D.D.A.v.v.v.v.v.v.v.v.v.D.D.D.D.D.D.D.D.D.D.D.D.D.D.D.D.",
"D.D.D.S.m.v.v.v.m.D.D.D.D.D.D.D.D.D.F.H.D.D.D.D.D.D.D.D.D.D.D.D.D.D.D.D.D.D.m.v.v.v.v.v.v.v.v.v.D.D.D.D.D.D.D.D.D.D.D.D.D.D.D.D.",
"D.D.D.m.v.v.v.v.v.S.D.D.D.D.D.D.D.D.K.K.H.D.D.D.D.D.D.D.D.D.D.D.D.D.D.D.D.D.m.v.v.v.v.v.v.v.v.m.D.D.D.D.D.D.D.D.D.D.D.D.D.D.D.D.",
"D.D.D.A.v.v.v.v.v.m.D.D.D.D.D.D.D.J.K.K.K.J.D.D.D.D.D.D.D.D.D.D.D.D.D.D.D.D.D.D.D.S.S.A.A.m.m.m.D.D.D.D.D.D.D.D.D.D.D.D.D.D.D.D.",
"D.D.D.D.m.v.v.v.v.v.S.D.D.D.D.D.J.K.K.K.K.K.J.F.D.D.D.D.D.D.D.D.D.D.D.D.D.D.D.D.D.D.D.D.D.D.D.D.D.D.D.D.D.D.D.D.D.D.D.D.D.D.D.D.",
"D.D.D.D.A.v.v.m.A.D.D.D.D.D.D.J.K.K.K.K.K.K.K.K.F.D.D.D.D.D.D.D.D.D.D.D.D.D.D.D.D.D.D.D.D.D.D.D.D.D.D.D.D.D.D.D.D.D.D.D.D.D.D.D.",
"D.D.D.D.D.m.S.D.D.D.D.D.D.D.H.K.K.K.K.K.K.K.K.K.K.G.D.D.D.D.D.D.D.D.D.D.D.D.D.D.D.D.D.D.D.D.D.D.D.D.D.D.D.D.D.D.D.D.D.D.D.D.D.D.",
"D.D.D.D.D.D.D.D.D.D.D.D.D.H.K.K.K.K.K.K.K.K.K.K.K.K.D.D.D.D.D.D.D.D.D.D.D.D.D.D.D.D.D.D.D.D.D.D.D.D.D.D.D.D.D.D.D.D.D.D.D.D.D.D.",
"D.D.D.D.D.D.D.D.D.D.D.D.D.G.K.K.K.K.K.K.K.K.K.K.K.F.D.D.D.D.D.D.D.D.D.D.D.D.D.D.D.D.D.D.D.D.D.D.D.D.D.D.D.D.D.D.D.D.D.D.D.D.D.D.",
"D.D.D.D.D.D.D.D.D.D.D.D.D.D.G.K.K.K.K.K.K.K.K.K.G.D.D.D.D.D.D.D.D.D.D.D.D.D.D.D.D.D.D.D.D.D.D.D.D.D.D.D.D.D.D.D.D.D.D.D.D.D.D.D.",
"D.D.D.D.D.D.D.D.D.D.D.D.D.D.D.G.K.K.K.K.K.K.K.G.D.D.D.D.D.D.D.D.D.D.D.D.D.D.D.D.D.D.D.D.D.D.D.D.D.D.D.D.D.D.D.D.D.D.D.D.D.D.D.D.",
"D.D.D.D.D.D.D.D.D.D.D.D.D.B.w.a.~ T T T T %.&.o.*.*.*.*.*.*.*.*.*.*.*.*.*.*.*.*.*.*.*.*.*.*.*.g.k.i.D.D.D.D.D.D.D.D.D.D.D.D.D.D.",
"D.D.D.D.D.D.D.D.D.D.D.D.M.U C C C C C F P P P P P P P P P P P P P P P P P P P P P P P P P P P P P P z.D.D.D.D.D.D.D.D.D.D.D.D.D.",
"D.D.D.D.D.D.D.D.D.D.D.N.~ C C C C C F P P P P P L +.+.+.+.+.+.+.+.+.+.+.+.+.+.+.+.+.+.+.+.+.L P P P #.i.D.D.D.D.D.D.D.D.D.D.D.D.",
"D.D.D.D.D.D.D.D.D.D.D.w.C C C C C C K P P P _ V 7.6.6.6.6.6.6.6.6.6.6.6.6.6.6.6.6.6.6.6.6.6.7.7.] P P g.D.D.D.D.D.D.D.D.D.D.D.D.",
"D.D.D.D.D.D.D.D.D.D.D.^ C C C C C Z P P P +.4.4.4.4.4.4.4.4.4.4.4.4.4.4.4.4.4.4.4.4.4.4.4.4.4.4.4.X.P @.D.D.D.D.D.D.D.D.D.D.D.D.",
"D.D.D.D.D.D.D.D.D.D.D.A C C C C C F P P P  .5.5.9.9.9.9.9.9.9.9.9.9.9.9.9.9.9.9.9.9.9.9.9.9.9.5.5.] P P D.D.D.D.D.D.D.D.D.D.D.D.",
"D.D.D.D.D.D.D.D.D.D.S.A C C C C C F P P P  .0.c.c.c.c.c.c.c.c.c.c.c.c.c.c.c.c.c.c.c.c.c.c.c.c.c.0.] P P D.D.D.D.D.D.D.D.D.D.D.D.",
"D.D.D.D.D.D.D.D.D.D.m.A C C C C C F P P P  .c.c.c.c.c.c.c.c.c.c.c.c.c.c.c.c.c.c.c.c.c.c.c.c.c.c.c.[ P P D.D.D.D.D.D.D.D.D.D.D.D.",
"D.D.D.D.D.D.D.D.D.D.m.A C C C C C F P P P  .c.c.c.c.1.m n M 9.c.c.c.c.c.c.c.c.c.c.-.n m 3.c.c.c.c.[ P P D.D.D.D.D.D.D.D.D.D.D.D.",
"D.D.D.D.D.D.D.D.D.D.v.A C C C C C F P P P $.c.c.c.>.O X o % 4.c.c.c.c.c.c.c.c.c.c.& o o # ,.c.c.c.[ P P m.D.D.D.D.D.D.D.D.D.D.D.",
"D.D.D.D.D.D.D.D.D.S.v.A C C C C C F P P P  .c.c.c.2.-.2.2.3.0.c.c.c.c.c.c.c.c.c.c.3.2.2.,.<.c.c.c.[ P P v.m.D.D.D.D.D.D.D.D.D.D.",
"D.D.D.D.D.D.D.D.D.m.v.A C C C C C F P P P $.c.c.c.c.c.9.5.9.c.c.c.c.c.c.c.c.c.c.c.c.9.9.0.c.c.c.c.[ P P v.m.D.D.D.D.D.D.D.D.D.D.",
"D.D.D.D.D.D.D.D.D.m.v.A C C C C C F P P P $.c.c.c.c.-.X   + 1.c.c.c.c.c.c.c.c.c.0.m $ O : 9.c.c.c.[ P P m.D.D.D.D.D.D.D.D.D.D.D.",
"D.D.D.D.D.D.D.D.D.v.v.A C C C C C F P P P $.c.c.c.0.*       : 0.c.c.c.c.c.c.c.c.<.O     . ,.c.c.c.[ P P D.D.D.D.D.D.D.D.D.D.D.D.",
"D.D.D.D.D.D.D.D.S.v.v.A C C C C C F P P P $.c.c.c.0.:       : 0.c.c.c.c.c.c.c.c.3.O       ,.c.c.c.[ P P D.D.D.D.D.D.D.D.D.D.D.D.",
"D.D.D.D.D.D.D.D.m.v.v.A C C C C C F P P P $.c.c.c.c.>.+ o $ ,.c.c.c.c.c.c.c.c.c.c.: o o = 0.c.c.c.[ P P D.D.D.D.D.D.D.D.D.D.D.D.",
"D.D.D.D.D.D.D.D.S.A.m.A C C C C C F P P P $.c.c.c.c.c.2.,.3.c.c.c.c.c.c.c.c.9.0.c.c.<.<.9.c.c.c.c.[ P P D.D.D.D.D.D.D.D.D.D.D.D.",
"D.D.D.D.D.D.D.D.D.D.D.A C C C C C Z P P P $.c.c.c.c.c.c.c.c.c.c.; - 5.c.c.4.$ : c.c.c.c.c.c.c.c.c.[ P P D.D.D.D.D.D.D.D.D.D.D.D.",
"D.D.D.D.D.D.D.D.D.D.D.A C C C C C Z P P P $.c.c.c.c.c.c.c.c.c.c.: . % m n # . b c.c.c.c.c.c.c.c.c.[ P P D.D.D.D.D.D.D.D.D.D.D.D.",
"D.D.D.D.D.D.D.D.D.D.D.A C C C C C F P P P $.c.c.c.c.c.c.c.c.c.c.4.> O X X @ n 0.c.c.c.c.c.c.c.c.c.[ P P D.D.D.D.D.D.D.D.D.D.D.D.",
"D.D.D.D.D.D.D.D.D.D.D.A C C C C C F P P P $.c.c.c.c.c.c.c.c.c.c.c.9.2.,.,.2.c.c.c.c.c.c.c.c.c.c.c.[ P P D.D.D.D.D.D.D.D.D.D.D.D.",
"A.A.D.D.D.D.D.D.D.D.D.A C C C C C Z P P P $.c.c.c.c.c.c.c.c.c.c.c.c.c.c.c.c.c.c.c.c.c.c.c.c.c.c.c.[ P P D.D.D.D.D.D.D.D.D.S.S.S.",
"v.v.S.D.D.D.D.D.D.D.D.A C C C C C Z P P P $.c.c.c.c.c.c.c.c.c.c.c.c.c.c.c.c.c.c.c.c.c.c.c.c.c.c.c.[ P P D.D.D.D.D.D.D.D.S.v.v.v.",
"v.v.S.D.D.D.D.D.D.D.D.A C C C C C F P P P L c.c.c.c.c.c.c.c.c.c.c.c.c.c.c.c.c.c.c.c.c.c.c.c.c.c.c. .P P B.D.D.D.D.D.D.D.D.v.v.v.",
"v.v.A.D.D.D.D.D.D.D.D.S C C C C C F P P P P [ c.c.c.c.c.c.c.c.c.c.c.c.c.c.c.c.c.c.c.c.c.c.c.c.c.{ P P P s.D.D.D.D.D.D.D.D.v.v.v.",
"v.v.m.D.D.D.D.D.D.D.C.S Z Z C C C F P P P P P P P P P P P P P P P P P P P P P P P P P P P P P P P P P P D C.D.D.D.D.D.D.D.v.v.v.",
"v.m.m.D.D.D.D.D.D.D.u.Z F F C C C F P P P P P P P P P P P P P P P P P P P P P P P P P P P P P P P P P P F u.D.D.D.D.D.D.D.m.v.v.",
"D.D.D.D.D.D.D.D.D.D.s.F F F Z C C F P P P P P P P P P P P P P P P P P P P P P P P P P P P P P P P P P P G a.D.D.D.D.D.D.D.S.S.S.",
"D.D.D.D.D.D.D.D.D.B.! G G G C C C F P P P P P P P Y , 6 6 l K P P P P P P J v , 6 6 a } P P P P P P P P G ! B.D.D.D.D.D.D.D.D.D.",
"D.D.D.D.D.D.D.D.D.Z./ G G G C C C Z P P P P P P P I 6 6 6 l K P P P P P J :.< i i i 4 s | P P P P P P P G / Z.D.D.D.D.D.D.D.D.D.",
"D.D.D.D.D.D.D.D.D.t.H H G G C C C F P P P P P P P } 6 6 6 k | P P P P P T 5 p y y y 9 6 R P P P P P P P H H t.D.D.D.D.D.D.D.D.D.",
"D.D.D.D.D.D.D.D.D.l.J J J G C C C F P P P P K T T W 6 6 6 , a 2 , :.P P W 6 w y y y e g a W ) K P P P P J J l.D.D.D.D.D.D.D.D.D.",
"D.D.D.D.D.D.D.D.N.f.J J J H C C C F P P P P N 6 6 6 6 6 6 6 6 6 6 ;.P P I 6 w y y y t 1 3 3 3 j / P P P J J ` C.D.D.D.D.D.D.D.D.",
"D.D.D.D.D.D.D.D.C...K K K J C C C F P P P P :.6 6 6 6 6 6 6 6 6 6 f J P | k u r y t x h 0 w 0 h l J P P K K ..C.D.D.D.D.D.D.D.D.",
"D.D.D.D.D.D.D.D.C.K K K K K C C C F P P P P B 6 6 6 6 6 6 6 6 6 6 d J P P I 5 3 1 4 < 7 y y y 7 < R P P K K K B.D.D.D.D.D.D.D.D.",
"D.D.D.D.D.D.D.D.B.K K K K K F C C F P P P P E 5 5 5 , 6 6 , f R T O.P P P P } ;.d 2 < 8 y y y 0 < B P P K K K V.D.D.D.D.D.D.D.D.",
"D.D.D.D.D.D.D.V.h.P P P P P J C C F P P P P J } O.K d 6 6 , E P P P P P P P P P P N 6 9 y y y x 6 U P P P P P h.M.S.D.D.D.D.D.D.",
"D.D.D.D.D.D.C.g.P P P P P P P G C F P P P P P P P K ;.6 6 6 B P P P P P P P P P P O.5 4 c q z < s K P P P P P P ` b.v.v.m.D.D.D.",
"D.D.D.D.D.D.Z.#.P P P P P P P P C F P P P P P P P P :.6 6 6 B P P P P P P P P P P P | k 6 6 6 s J P P P P P P P +.r.v.v.A.D.D.D.",
"D.D.D.D.D.D.p.@.P P P P P P P P F C K P P P P P P P O./ / / K P P P P P P P P P P P P O.W E Q J P P P P P P P P P 8.v.v.A.D.D.D.",
"D.D.D.D.D.D.x.P P P P P P P P P F C G P P P P P P P P P P P P P P P P P P P P P P P P P P P P P P P P P P P P P P l.v.v.S.D.D.D.",
"D.D.D.D.D.D.p.@.P P P P P P P P F C C G P P P P P P P P P P P P P P P P P P P P P P P P P P P P P P P P P P P P @.q.v.v.S.D.D.D.",
"D.D.D.D.D.D.V.*.P P P P P P P o.T U U U T K P P P P #.*.*.*.*.*.*.*.*.*.#.P P P P +.*.*.*.*.*.*.#.P P P P P P P o.M.A.A.D.D.D.D.",
"D.D.D.F.G.G.H.p.+.P P P P P =.M.D.D.D.D.S.( H J K P 8.m.D.D.D.D.D.D.D.D.i.P P J G a.D.D.D.D.D.D.M.=.P P P P P +.p.D.D.D.D.D.D.D.",
"D.F.K.K.K.K.K.G.Z.j.@.P #.x.B.D.D.D.D.D.D.^ C C C F 8.S.D.D.D.D.D.D.D.D.i.P G C C a.D.D.D.D.D.D.D.B.x.#.P @.g.Z.D.D.D.D.D.D.D.D.",
"D.D.K.K.K.K.K.G.D.D.D.D.D.D.D.D.D.D.D.D.i.O.K K J F e.D.D.D.D.D.D.D.D.D.i.J C C H O.=.=.j.M.D.D.D.D.D.D.D.D.D.D.D.D.D.D.D.D.D.D.",
"D.D.H.K.K.K.K.H.D.D.D.D.D.D.D.D.D.D.B.g.P P P P P P ' M.D.D.D.D.D.D.D.D.i.F F K P P P P P P z.C.D.D.D.D.D.D.D.D.D.D.D.D.D.D.D.D.",
"D.D.H.K.K.K.K.J.D.D.D.D.D.D.D.D.D.C.g.P P P P P P P P g.D.D.D.D.D.D.D.D.u.F P P P P P P P P @.8.m.D.D.D.D.D.D.D.D.D.D.D.D.D.D.D.",
"D.D.G.K.K.K.J.H.D.D.D.D.D.D.D.D.D.z.P P P P P P P P P P y.D.D.D.D.D.D.D.u.K P P P P P P P P P @.n.D.D.D.D.D.D.D.D.D.D.D.D.D.D.D.",
"D.D.D.F.D.D.D.D.D.D.D.D.D.D.D.D.V.*.P P P P P P P P P P +.D.D.D.D.D.D.D.i.P P P P P P P P P P P d.D.D.D.D.D.D.D.D.D.D.D.D.D.D.D.",
"D.D.D.D.D.D.D.D.D.D.D.D.D.D.D.D.i.+.P P P P P P P P P P P V.D.D.D.D.D.D.i.P P P P P P P P P P P +.D.D.D.D.D.D.D.D.D.D.D.D.D.D.D."
};
