/* XPM */
static char *bdd083525fb2481dade3f0d1365b16deRAmpW6GoAG2InfdD[] = {
/* columns rows colors chars-per-pixel */
"64 64 54 1 ",
"  c None",
". c #3687BD",
"X c #3688BF",
"o c #3B88BB",
"O c #4A8EB7",
"+ c #408ABA",
"@ c #458CB8",
"# c #4F90B5",
"$ c #5091B7",
"% c #5591B4",
"& c #5A93B2",
"* c #5F95B1",
"= c #6999AE",
"- c #6F9AAD",
"; c #749CAB",
": c #799EAA",
"> c #6497B0",
", c #7EA0A8",
"< c #378AC1",
"1 c #388BC3",
"2 c #388DC5",
"3 c #398EC7",
"4 c #3A90C9",
"5 c #3A91CB",
"6 c #3B93CD",
"7 c #3C94CF",
"8 c #3C96D1",
"9 c #3D97D3",
"0 c #3E99D5",
"q c #3E9AD7",
"w c #3F9CD9",
"e c #4993C2",
"r c #4995C4",
"t c #409DDB",
"y c #419FDD",
"u c #83A2A7",
"i c #89A4A6",
"p c #8AA5A7",
"a c #8BA7A9",
"s c #8EABAD",
"d c #90ACAE",
"f c #91AEB0",
"g c #92AFB2",
"h c #93B0B2",
"j c #94B2B4",
"k c #95B3B5",
"l c #97B5B7",
"z c #99B8BB",
"x c #9AB9BB",
"c c #9BBABC",
"v c #9DBCBE",
"b c #9EBEC0",
"n c #A0C0C1",
"m c #A0C0C2",
/* pixels */
"                        nnnnnnnnnnnnnnnn                        ",
"                   nnnnnnnnnnnnnnnnnnnnnnnnn                    ",
"                 nnnnncxljjjjssssssssjjjxbnnnnn                 ",
"               nnnnldaiiiiiiiiiiiiiiiiiiiiahcnnnn               ",
"             nnnbldiiiiiiiiiiiiiiiiiiiiiiiiiiahbnnn             ",
"            nnvfiiiiiiiiiiiiiiiiiiiiiiiiiiiiiiiihbnn            ",
"          nnnjiiiiiiiiiiiiiiiiiiiiiiiiiiiiiiiiiiiijnn           ",
"         nnbdiiiiiiiiiiiiiiiiiiiiiiiiiiiiiiiiiiiiiijnn          ",
"        nnxaiiiiiiiiiiiiiiiiiiiiiiiiiiiiiiiiiiiiiiiisbnn        ",
"       nnliiiiiiiiiiiiiiiiiiiiiiiiiiiiiiiiiiiiiiiiiiiicnn       ",
"      nnliiiiiiiiiiiiiu;>OOOO.......O**-uiiiiiiiiiiiiiilnn      ",
"      nliiiiiiiiiiii:%+..................@=uiiiiiiiiiiiiln      ",
"     nliiiiiiiiiiiiO....166660000000622X...o*uiiiiiiiiiiiln     ",
"    nciiiiiiiiiii-+..49yyyyyyyyyyyyyyyyy07<..+:iiiiiiiiiiicn    ",
"    baiiiiiiiiii*..6tyyyyyyyyyyyyyyyyyyyyyy02..>iiiiiiiiiiab    ",
"   ndiiiiiiiiii&.<9yyyyyyyyyyyyyyyyyyyyyyyyyy9X.*iiiiiiiiiidn   ",
"   xiiiiiiiiii%.2tyyyyyyyyyyyyyyyyyyyyyyyyyyyyw1.=iiiiiiiiiix   ",
"  naiiiiiiiii>.2yyyyyyyyyyyyyyyyyyyyyyyyyyyyyyyy2.;iiiiiiiiian  ",
"  liiiiiiiii,.4yyyyyyyyyyyyyyyyyyyyyyyyyyyyyyyyyt1ouiiiiiiiiil  ",
" naiiiiiiiiiO1yyyyyyyyyyyyyyyyyyyyyyyyyyyyyyyyyyyt1Oiiiiiiiiian ",
" xiiiiiiiii;Xwyyyyyyyyyyy0766222222290yyyyyyyyyyyy0X;iiiiiiiiix ",
" fiiiiiiiiiO9yyyyyyyyyt9X..............29yyyyyyyyyy6#iiiiiiiiif ",
" iiiiiiiiiu<yyyyyyyyy01..................2tyyyyyyyytX,iiiiiiiii ",
"xiiiiiiiii=9yyyyyyyytX....................Xtyyyyyyyy9>iiiiiiiiix",
"fiiiiiiiii$yyyyyyyyt1......................1yyyyyyyyt%iiiiiiiiif",
"fiiiiiiiiiryyyyyyyy2........................4yyyyyyyyeiiiiiiiiif",
"siiiiiiiii9yyyyyyyw..........................wyyyyyyy7iiiiiiiiis",
"iiiiiiiiii0yyyyyyy4..........................6yyyyyyy0iiiiiiiiii",
"iiiiiiiiiiyyyyyyyy<..........................2yyyyyyytiiiiiiiiii",
"iiiiiiiiiiyyyyyyyy............................yyyyyyyyiiiiiiiiii",
"iiiiiiiiiiyyyyyyyy............................yyyyyyyyiiiiiiiiii",
"iiiiiiiiiiyyyyyyyy............................yyyyyyyyiiiiiiiiii",
"iiiiiiiiiiyyyyyyyy............................yyyyyyyyiiiiiiiiii",
"iiiiiiiiiiyyyyyyyy............................yyyyyyyyiiiiiiiiii",
"iiiiiiiiiiyyyyyyyy............................yyyyyyyyiiiiiiiiii",
"iiiiiiiiiiyyyyyyyy............................yyyyyyyyiiiiiiiiii",
"iiiiiiiiiiyyyyyyyy............................yyyyyyyyiiiiiiiiii",
"iiiiiiiiiiyyyyyyyy............................yyyyyyyyiiiiiiiiii",
"iiiiiiiiiiyyyyyyyy............................yyyyyyyyiiiiiiiiii",
"iiiiiiiiiiyyyyyyyy............................yyyyyyyyiiiiiiiiii",
"iiiiiiiiiiyyyyyyyy............................yyyyyyyyiiiiiiiiii",
"iiiiiiiiiiyyyyyyyy............................yyyyyyyyiiiiiiiiii",
"iiiiiiiiiiyyyyyyyy............................yyyyyyyyiiiiiiiiii",
"iiiiiiiiiiyyyyyyyy............................yyyyyyyyiiiiiiiiii",
"iiiiiiiiiiyyyyyyyy............................yyyyyyyyiiiiiiiiii",
"iiiiiiiiiiyyyyyyyy............................yyyyyyyyiiiiiiiiii",
"iiiiiiiiiiyyyyyyyy............................yyyyyyyyiiiiiiiiii",
"iiiiiiiiiiyyyyyyyy............................yyyyyyyyiiiiiiiiii",
"iiiiiiiiiiyyyyyyyy............................yyyyyyyyiiiiiiiiii",
"iiiiiiiiiiyyyyyyyy............................yyyyyyyyiiiiiiiiii",
"iiiiiiiiiiyyyyyyyy............................yyyyyyyyiiiiiiiiii",
"iiiiiiiiiiyyyyyyyy............................yyyyyyyyiiiiiiiiii",
"iiiiiiiiiiyyyyyyyy............................yyyyyyyyiiiiiiiiii",
"iiiiiiiiiiyyyyyyyy............................yyyyyyyyiiiiiiiiii",
"iiiiiiiiiiyyyyyyyy............................yyyyyyyyiiiiiiiiii",
"iiiiiiiiiiyyyyyyyy............................yyyyyyyyiiiiiiiiii",
"iiiiiiiiiiyyyyyyyyyyyyyyyyyyyyyyyyyyyyyyyyyyyyyyyyyyyyiiiiiiiiii",
"iiiiiiiiiiyyyyyyyyyyyyyyyyyyyyyyyyyyyyyyyyyyyyyyyyyyyyiiiiiiiiii",
"iiiiiiiiiiyyyyyyyyyyyyyyyyyyyyyyyyyyyyyyyyyyyyyyyyyyyyiiiiiiiiii",
"iiiiiiiiiiyyyyyyyyyyyyyyyyyyyyyyyyyyyyyyyyyyyyyyyyyyyyiiiiiiiiii",
"iiiiiiiiiiyyyyyyyyyyyyyyyyyyyyyyyyyyyyyyyyyyyyyyyyyyyyiiiiiiiiii",
"iiiiiiiiiiyyyyyyyyyyyyyyyyyyyyyyyyyyyyyyyyyyyyyyyyyyyyiiiiiiiiii",
"iiiiiiiiiiyyyyyyyyyyyyyyyyyyyyyyyyyyyyyyyyyyyyyyyyyyyyiiiiiiiiii",
"iiiiiiiiiiyyyyyyyyyyyyyyyyyyyyyyyyyyyyyyyyyyyyyyyyyyyyiiiiiiiiii"
};
