/* XPM */
 static char *_3d2d80f62984b4fd6566437b80182abhQoMkxUwQ8ZL2Onv[] = {
 /* columns rows colors chars-per-pixel */
 "64 64 75 1 ",
 "  c #BB5512",
 ". c #BD5815",
 "X c #B75B1E",
 "o c #B95A1A",
 "O c #B65D22",
 "+ c #B36027",
 "@ c #B3622A",
 "# c #AC6B3C",
 "$ c #B16631",
 "% c #B16834",
 "& c #B16D3B",
 "* c #B6713F",
 "= c #C05712",
 "- c #C65A13",
 "; c #CB5D14",
 ": c #C55D18",
 "> c #D05F14",
 ", c #D66115",
 "< c #DC6516",
 "1 c #D76418",
 "2 c #DD6A1E",
 "3 c #E16716",
 "4 c #E56917",
 "5 c #E86A17",
 "6 c #E36818",
 "7 c #C96420",
 "8 c #C66B2D",
 "9 c #D66B23",
 "0 c #C4743C",
 "q c #CF793C",
 "w c #A7724A",
 "e c #A87148",
 "r c #A57652",
 "t c #A57854",
 "y c #AA7B55",
 "u c #A27D5D",
 "i c #B17A50",
 "p c #A07E60",
 "a c #9F8266",
 "s c #9D846A",
 "d c #998A75",
 "f c #968E7D",
 "g c #988B78",
 "h c #7F989A",
 "j c #959081",
 "k c #9D9381",
 "l c #92968C",
 "z c #91988F",
 "x c #8E9B95",
 "c c #819A9C",
 "v c #8D9D99",
 "b c #A19581",
 "n c #8CA09E",
 "m c #859FA1",
 "M c #86A1A3",
 "N c #89A4A6",
 "B c #8BA7A9",
 "V c #8CA7A9",
 "C c #8CA8A9",
 "Z c #8EABAD",
 "A c #8FACAE",
 "S c #90ACAD",
 "D c #92AFB1",
 "F c #93B0B2",
 "G c #94B1B3",
 "H c #95B3B5",
 "J c #96B4B6",
 "K c #98B7B8",
 "L c #9BBABB",
 "P c #9BBABC",
 "I c #9CBBBD",
 "U c #9CBCBD",
 "Y c #9FBEC0",
 "T c #A0BFC1",
 "R c #A0C0C2",
 /* pixels */
 "NNNNNNNNNNNNNNNNNNNNNBSFHJKKKPUUUUUUULJDZNchhhhhMNNNNNNNNNNNNNNN",
 "NNNNNNNNNNNNNNNNNNNDLUUYYYYYYRRRRRRRRYYYUUPJCmchMNNNNNNNNNNNNNNN",
 "NNNNNNmcMNNNNNNNBFLUTRUPKJJJJFDDDDDDDHJJLURYUIJBBNNNNNNNNNNNNNNN",
 "NNNMchhhcNNNNNCHIYTLGACVBBBBBNNNNNNNNBBBBCZFLYYULDBNNNNNNNNNNNNN",
 "NNNchhhhhMNNNFPYYLGCBNNNNNNNNNNNNNNNNNNNNNNNBZFIYYKZNNNNNNNNNNNN",
 "NNNmhhhhhcNCKUUJZBBNNNNNNNNNNNNNNNNNNNNNNNNNNNNVFIYUGBNNNNNNNNNN",
 "NNNNchhhhhDIYKZBNNNNNNNNNNNNNNNNNNNNNNNNNNNNNNNNNCHUYJVNNNNNNNNN",
 "NNNNmhhcmDUYHCNNNNNNNNNNNNNNNNNNNNNNNNNNNNNNNNNNNNBFUYHBNNNNNNNN",
 "NNNNNcMNDUIDBNNNNNNNNNNNNNNNNNNNNNNNNNNNNNNNNNNNNNNBAPYKCNNNNNNN",
 "NNNNNNNDULZNNNNNNNNNNNNNNNNNNNNNNNNNNNNNNNNNNNNNNNNNNCKYKCNNNNNN",
 "NNNNNNDULZNNNNNNNNNNNNMldreee$++++++#uagxNNNNNNNNNNNNNBHUKCNNNNN",
 "NNNNNZPLZNNNNNNNNNNNxa#+Xoooo       .oXOO#sxNNNNNNNNNNNBHUGBNNNN",
 "NNNNCKLZNNNNNNNNNNNp@X. =;;;;,,,,,,,>--  .X@tzNNNNNNNNNNBHISNNNN",
 "NNNNHPANNNNNNNNNNlwO -><3444444444444333<,- o@dMNNNNNNNNNBJLCNNN",
 "NNNSLDNNNNNNNNNNd$o;<3445555555555555555443<;.OuvNNNNNNNNNCLHBNN",
 "NNNKHVNNNNNNNNNd@.;34555555555555555555555544<=otxNNNNNNNNNSLANN",
 "NNSKZNNNNNNNNNs@=<4455555555555555555555555554<;ouvNNNNNNNNNJHVN",
 "NNKDNNNNNNNNNf$=<4555555555555555555555555555544;XsnNNNNNNNNCLZN",
 "NZJCNNNNNNNNv#:<455555555555555555555555555555553;OjNNNNNNNNNHFB",
 "NGSNNNNNNNNNuX<45555555555555555555555555555555553;#lNNNNNNNNCHC",
 "NHZNNNNNNNNl%,455555555553<,,;;;;;;;<<455555555555<:snNNNNNNNNJC",
 "CDBNNNNNNNNu73555555554<;=           ==;,4555555554,&lNNNNNNNNSA",
 "DCNNNNNNNNM&<455555553;=                 ;<455555554:dMNNNNNNNBD",
 "DCNNNNNNNNj8355555554;                    =<45555555<yxNNNNNNNND",
 "ZBNNNNNNNNu945555554>                      -355555554*zNNNNNNNNZ",
 "ZBNNNNNNNNi25555555,=                       ;355555558lNNNNNNNNZ",
 "ZBNNNNNNNN065555554-                         <45555551kNNNNNNNNC",
 "NNNNNNNNNN04555555,=                         ;3555555<kNNNNNNNNN",
 "NNNNNNNNNNq5555555;                          -35555554bNNNNNNNNN",
 "NNNNNNNNNNq5555555-                           <5555555bNNNNNNNNN",
 "NNNNNNNNNNq5555555-                           <5555555bNNNNNNNNN",
 "NNNNNNNNNNq5555555-                           <5555555bNNNNNNNNN",
 "NNNNNNNNNNq5555555-                           <5555555bNNNNNNNNN",
 "NNNNNNNNNNq5555555-                           <5555555bNNNNNNNNN",
 "NNNNNNNNNNq5555555-                           <5555555bNNNNNNNNN",
 "MNNNNNNNNNq5555555-                           <5555555bNNNNNNNNN",
 "MNNNNNNNNNq5555555-                           <5555555bNNNNNNNNN",
 "MNNNNNNNNNq5555555-                           <5555555bNNNNNNNNN",
 "MNNNNNNNNNq5555555-                           <5555555bNNNNNNNNN",
 "MNNNNNNNNNq5555555-                           <5555555bNNNNNNNNN",
 "NNNNNNNNNNq5555555-                           <5555555bNNNNNNNNN",
 "NNNNNNNNNNq5555555-                           <5555555bNNNNNNNNN",
 "NNNNNNNNNNq5555555-                           <5555555bNNNNNNNNN",
 "NNNNNNNNNNq5555555-                           <5555555bNNNNNNNNN",
 "NNNNNNNNNNq5555555-                           <5555555bNNNNNNNNN",
 "NNNNNNNNNNq5555555-                           <5555555bNNNNNNNNN",
 "NNNNNNNNNNq5555555-                           <5555555bNNNNNNNNN",
 "NNNNNNNNNNq5555555-                           <5555555bNNNNNNNNN",
 "NNNNNNNNNNq5555555-                           <5555555bNNNNNNNNN",
 "NNNNNNNNNNq5555555-                           <5555555bNNNNNNNNN",
 "NNNNNNNNNNq5555555-                           <5555555bNNNNNNNNN",
 "NNNNNNNNNNq5555555-                           <5555555bNNNNNNNNN",
 "NNNNNNNNNNq5555555-                           <5555555bNNNNNNNNN",
 "NNNNNNNNNNq5555555-                           <5555555bNNNNNNNNN",
 "NNNNNNNNNNq5555555-                           <5555555bNNNNNNNNN",
 "NNNNNNNNNNq5555555-                           <5555555bNNNNNNNNN",
 "NNNNNNNNNNq5555555333333333333333333333333333345555555bNNNNNNNNN",
 "NNNNNNNNNNq5555555555555555555555555555555555555555555bNNNNNNNNN",
 "NNNNNNNNNNq5555555555555555555555555555555555555555555bNNNNNNNNN",
 "NNNNNNNNNNq5555555555555555555555555555555555555555555bNNNNNNNNN",
 "NNNNNNNNNNq5555555555555555555555555555555555555555555bNNNNNNNNN",
 "NNNNNNNNNNq5555555555555555555555555555555555555555555bNNNNNNNNN",
 "NNNNNNNNNNq5555555555555555555555555555555555555555555bNNNNNNNNN",
 "NNNNNNNNNNq5555555555555555555555555555555555555555555bNNNNNNNNN"
 };