/* XPM */
static char *_23c2dd6b2f6495dc44bd353eb9106222hrFDy44vsXSZzmk[] = {
/* columns rows colors chars-per-pixel */
"64 64 28 1 ",
"  c #7F989A",
". c #80999B",
"X c #809A9C",
"o c #819B9D",
"O c #829B9D",
"+ c #829C9E",
"@ c #839D9F",
"# c #849EA0",
"$ c #859FA1",
"% c #85A0A2",
"& c #86A1A3",
"* c #87A1A3",
"= c #87A2A4",
"- c #88A3A5",
"; c #89A4A6",
": c #8AA5A7",
"> c #8AA6A8",
", c #8BA6A8",
"< c #8BA7A9",
"1 c #8CA8AA",
"2 c #8DA9AB",
"3 c #8EAAAC",
"4 c #8FABAD",
"5 c #8FACAE",
"6 c #90ACAE",
"7 c #90ADAF",
"8 c #91AEB0",
"9 c #92AFB1",
/* pixels */
";;;;;;;;;;;;;;;;;;;;;;;;;;;;;;;;;;;;;;%         %;;;;;;;;;;;;;;;",
";;;;;;;;;;;;;;;;;;;;;;;;;;;;;;;;;;;;;;#         =;;;;;;;;;;;;;;;",
";;;;;-#.%;;;;;;;;;;;;;;;;;;;;;;;;;;;;;#         ;;;;;;;;;;;;;;;;",
";;;=@   o;;;;;;;;;>3;;;;;;;;;;;;;;;;;;@         ;;;;;;;;;;;;;;;;",
";;;.     %;;;;;;;;995;;;;;;;;;;;;;;;;;o        .;;;;;;;;;;;;;;;;",
";;;#     o;;;;;;;69996;;;;;;;;;;;;;;;;;;-%%##@o@;;;;;;;;;;;;;;;;",
";;;;.     =;;;;;6999996>;;;;;;;;;;;;;;;;;;;;;;;;;;;;;;;;;;;;;;;;",
";;;;#  .#-;;;;;699999999>;;;;;;;;;;;;;;;;;;;;;;;;;;;;;;;;;;;;;;;",
";;;;;@%;;;;;;;399999999991;;;;;;;;;;;;;;;;;;;;;;;;;;;;;;;;;;;;;;",
";;;;;;;;;;;;;3999999999999;;;;;;;;;;;;;;;;;;;;;;;;;;;;;;;;;;;;;;",
";;;;;;;;;;;;;199999999999>;;;;;;;;;;;;;;;;;;;;;;;;;;;;;;;;;;;;;;",
";;;;;;;;;;;;;;19999999991;;;;;;;;;;;;;;;;;;;;;;;;;;;;;;;;;;;;;;;",
";;;;;;;;;;;;;;;199999991;;;;;;;;;;;;;;;;;;;;;;;;;;;;;;;;;;;;;;;;",
";;;;;;;;;;;;;;;;>999991;;;;;;;;;;;;;;;;;;;;;;;;;;;;;;;;;;;;;;;;;",
";;;;;;;;;;;;;;;;;>9991;;;;;;;;;;;;;;;;;;;;;;;;;;;;;;;;;;;;;;;;;;",
";;;;;;;;;;;;;;;;;;>93;;;;;;;;;;;;;;;;;;;;;;;;;;;;;;;;;;;;;;;;;;;",
";;;;;;;;;;;;;;;;;;;;;;;;;;;;;;;;;;;;;;;;;;;;;;;;;;;;;;;;;;;;;;;;",
";;;;;;;;;;;;;;;;;;;;;;;;;;;;;;;;;;;;;;;;;;;;;;;;;;;;;;;;;;;;;;;;",
";;;;;;;;;;;;;;;;;;;;;;;;;;;;;;;;;;;;;;;;;;;;;;;;;;;;;;;;;;;;;;;;",
";;;;;;;;;;%#%;;;;;;;;;;;;;;;;;;;;;;;;;;;;;;;;;;;;;;;;;;;;;;;;;;;",
";;;;;;;;;;@   o#%;;;;;;;;;;;;;;;;;;;;;;;;;;;;;;;;%@;;;;;;;;;;;;;",
";;;;;;;;;;o       o#%;;;;;;;;;;;;;;;;;;;;;;;;;;;%  @;;;;;;;;;;;;",
";;;;;;;;;-          @;;;;;;;;;;;;;;;;;;;;;;;;;;-o   o-;;;;;;;;;;",
";;;;;;;;;%          #;;;;;;;;;;;;;;;;;;;;;;;;;-o     o-;;;;;;;;;",
";;;;;;;;;@          =;;;;;;;;;;;;;;;;;;;;;;;;;%      @;;;;;;;;;;",
";;;;;;;;;o         .;;;;;;;;;;;;;;;;;;;;;;;;;;;%    o;;;;;;;;;;;",
";;;;;;;;-          @;;;;;;;;;;;;;;;;;;;;;;;;;;;;-o o-;;;;;;;;;;;",
";;;;;;;;%          #;;;;;;;;;;;;;;;;;;;;;;;;;;;;;-@-;;;;;;;;;;;;",
";;;;;;;;@          =;;;;;;;;;;;;;;;;;;;;;;;;;;;;;;;;;;;;;;;;;;;;",
";;;;;;;;%#o       .;;;;;;;;;;-#o %;;;;;;;;;;;;;;;;;;;;;;;;;;;;;;",
";;;;;;;;;;;;%@.   @;;;;;;;%#o    #;;;;;;;;;;;;;;;;;;;;;;;;;;;;;;",
";;;;;;;;;;;;;;;=#o%;;;;;;#       o;;;;;;;;;;;;;;;;;;;;;;;;;;;;;;",
";;;;;;;;;;;;;;;;;;;;;;;;;-        =;;;;;;;;;;;;;;;;;;;;;;;;;;;;;",
";;;;;;;;;;;;;;;;;;;;;;;;;;o       #;;;;;;;;;;;;;;;;;;;;;;;;;;;;;",
"##;;;;;;;;;;;;;;;;;;;;;;;;#       o;;;;;;;;;;;;;;;;;;;;;;;;;-%%%",
"  %;;;;;;;;;;;;;;;;;;;;;;;-        -;;;;;;;;;;;;;;;;;;;;;;;;%   ",
"  %;;;;;;;;;;;;;;;;;;;;;;;;o     o#-;;;;;;;;;;;;;;;;;;;;;;;;-   ",
"  #;;;;;;;;;;;;;;;;;;;;;;;;#  o#-;;;;;;;;;;;;;;;;;;;;;;;;;;;;   ",
"  @;;;;;;;;;;;;;;;;;;;;;;;;-#=;;;;;;;;;;;;;;;;;;;;;;;;;;;;;;;   ",
" .@;;;;;;;;;;;;;;;;;;;;;;;;;;;;;;;;;;;;;;;;;;;;;;;;;;;;;;;;;;o  ",
";;;;;;;;;;;;;;;;;;;;;;;;;;;;;;;;;;;;;;;;;;;;;;;;;;;;;;;;;;;;;%%%",
";;;;;;;;;;;;;;;;;;;;;;;;;;;;;;;;;;;;;;;;;;;;;;;;;;;;;;;;;;;;;;;;",
";;;;;;;;;;;;;;;;;;;;;;;;;;;;;;;;;;;;;;;;;;;;;;;;13>;;;;;;;;;;;;;",
";;;;;;;;;;;;;;;;;;;;;;;;;;;;;;;;;;;;;;;;;;;;;159993;;;;;;;;;;;;;",
";;;;;;;;;;;;;;;;;;;;;;;;;;;;;;;;;;;;;;;;;;;69999999;;;;;;;;;;;;;",
";;;;;;;;;;;;;;;;;;;;;;;;;;;;;;;;;;;;;;;;;;;99999999>;;;;;;;;;;;;",
";;;;;;;;;;;;;;;;;;;# o#%;;;;;;;;;;;;;;;;;;;399999993;;;;;;;;;;;;",
";;;;;;;;;;;;;;;;;;;@     o@%=;;;;;;;;;;;;;;>99999999;;;;;;;;;;;;",
";;;;;;;;;;;;;;;;;;;.         #;;;;;;;;;;;;;;99999999>;;;;;;;;;;;",
";;;;;;;;;;;;;;;;;;-          %;;;;;;;;;;;;;;39999993>;;%%%;;;;;;",
";;;;;;;;;;;;;;;;;;%          ;;;;;;;;;;;;;;;199931;;;;;o    o;;;",
";;;;;;;;;;;;;;;;;;@         o;;;;;;;;;;;;;;;;31;;;;;;;;     #;;;",
";;;;;;;;;;;;;;;;;;o         #;;;;;;;;;;;;;;;;;;;;;;;;;;     #;;;",
";;;;;;;;;;;;;;;;;;          %;;;;;;;;;;;;;;;;;;;;;;;;;-     %;;;",
";;;;;;;;;;;;;;;;;%          ;;;;;;;;;;;;;;;;;;;;;;;;;;%     %;;;",
";;;;;;;;;;;;;;;;;#.        o;;;;;;;;;;;;;;;;;;;;;;;;;;-%%###;;;;",
";;;>115>;;;;;;;;;;;-%@o    @;;;;;;;;;;;;;;;;;;;;;;;;;;;;;;;;;;;;",
";>999991;;;;;;;;;;;;;;;;%#o%;;;;;;;;;;;;;;;;;;;;;;;;;;;;;;;;;;;;",
";;999991;;;;;;;;;;;;;;;;;;;;;;;;;;;;;;;;;;;;;;;;;;;;;;;;;;;;;;;;",
";;599995;;;;;;;;;;;;;;;;;;;;;;;;;;;;;;;@o@#%%;;;;;;;;;;;;;;;;;;;",
";;399996;;;;;;;;;;;;;;;;;;;;;;;;;;;;;;;.       o@;;;;;;;;;;;;;;;",
";;199965;;;;;;;;;;;;;;;;;;;;;;;;;;;;;;;         o;;;;;;;;;;;;;;;",
";;;>;;;;;;;;;;;;;;;;;;;;;;;;;;;;;;;;;;;         @;;;;;;;;;;;;;;;",
";;;;;;;;;;;;;;;;;;;;;;;;;;;;;;;;;;;;;;%         #;;;;;;;;;;;;;;;"
};
