/* XPM */
static char *d26d176d752f4c94ea42d3691668c69ba1DrlXttU0Ni0v54[] = {
/* columns rows colors chars-per-pixel */
"64 64 162 2 ",
"   c #374013",
".  c #3A4315",
"X  c #3E4817",
"o  c #424C19",
"O  c #47521C",
"+  c #4D581F",
"@  c #525E22",
"#  c #566224",
"$  c #5A6726",
"%  c #5B6827",
"&  c #64732C",
"*  c #68762E",
"=  c #6B792F",
"-  c #6C7B31",
";  c #67655F",
":  c #6B655E",
">  c #6F685C",
",  c #7E6356",
"<  c #7B6D56",
"1  c #72625B",
"2  c #746A5A",
"3  c #626262",
"4  c #B6653E",
"5  c #DC662E",
"6  c #CD6534",
"7  c #C16539",
"8  c #EE6727",
"9  c #E5662A",
"0  c #EA6728",
"q  c #F66723",
"w  c #8E634F",
"e  c #96644C",
"r  c #9D6449",
"t  c #8C764F",
"y  c #9C7D47",
"u  c #90774C",
"i  c #94794B",
"p  c #9A7C49",
"a  c #836354",
"s  c #8A6351",
"d  c #807054",
"f  c #897450",
"g  c #A96443",
"h  c #A07F45",
"j  c #758536",
"k  c #788837",
"l  c #7C8C39",
"z  c #83943D",
"x  c #86983F",
"c  c #AF853F",
"v  c #BF8D37",
"b  c #B2873E",
"n  c #B78A3B",
"m  c #BB8B39",
"M  c #E99416",
"N  c #EE9917",
"B  c #E6941B",
"V  c #ED9B1B",
"C  c #F29E17",
"Z  c #F39F18",
"A  c #F5A017",
"S  c #F6A31A",
"D  c #F9A519",
"F  c #FFAB1A",
"G  c #DD9627",
"H  c #D3962E",
"J  c #D9972E",
"K  c #D6982D",
"L  c #DD9B29",
"P  c #C28E36",
"I  c #C69034",
"U  c #CA9232",
"Y  c #D59734",
"T  c #E19522",
"R  c #E39E26",
"E  c #DCAF2E",
"W  c #D6A03F",
"Q  c #DEA43A",
"!  c #C7B239",
"~  c #D4B133",
"^  c #DBB432",
"/  c #D0B73A",
"(  c #E7A025",
")  c #EEA322",
"_  c #ECAE25",
"`  c #EFA729",
"'  c #E6AE28",
"]  c #EFAA2D",
"[  c #F1A421",
"{  c #F2AD24",
"}  c #F9AB21",
"|  c #F1AA2B",
" . c #E8B12A",
".. c #E2A333",
"X. c #E7A936",
"o. c #E9AA34",
"O. c #E1A638",
"+. c #E5A93A",
"@. c #8A9C41",
"#. c #A48143",
"$. c #AB8341",
"%. c #B39659",
"&. c #B4995E",
"*. c #B89C5F",
"=. c #8FA244",
"-. c #93A646",
";. c #94A847",
":. c #97AB48",
">. c #9AAE4A",
",. c #9EB34C",
"<. c #A3B74E",
"1. c #A4B94F",
"2. c #B5BA48",
"3. c #BFA15A",
"4. c #A6BB51",
"5. c #A9BE52",
"6. c #9B9C7E",
"7. c #AE9F6B",
"8. c #B09C68",
"9. c #A39D76",
"0. c #A79F78",
"q. c #B9A76D",
"w. c #ACA175",
"e. c #A9A47D",
"r. c #B3A674",
"t. c #C89947",
"y. c #D39E40",
"u. c #D7A545",
"i. c #DBA945",
"p. c #D4A84E",
"a. c #C6A355",
"s. c #CCA551",
"d. c #CCA856",
"f. c #C3A25A",
"g. c #C6A85E",
"h. c #D0A851",
"j. c #C1A763",
"k. c #B3C04F",
"l. c #ACC254",
"z. c #B0C051",
"x. c #7F989A",
"c. c #9E9F81",
"v. c #859994",
"b. c #889991",
"n. c #819B9D",
"m. c #899E99",
"M. c #9DA58E",
"N. c #8FA49F",
"B. c #96A395",
"V. c #9AA592",
"C. c #92A49B",
"Z. c #A3A586",
"A. c #A8A681",
"S. c #A0A58A",
"D. c #849EA0",
"F. c #86A1A3",
"G. c #89A4A6",
"H. c #8AA6A8",
"J. c #8CA8AA",
"K. c #8EAAAC",
"L. c #90ACAE",
"P. c #92AFB1",
/* pixels */
"G.G.G.G.G.G.G.G.G.G.G.G.G.G.G.G.G.G.G.G.G.G.G.G.G.G.G.G.G.G.G.G.G.G.G.G.G.G.F.x.x.x.x.x.x.x.x.x.F.G.G.G.G.G.G.G.G.G.G.G.G.G.G.G.",
"G.G.G.G.G.G.G.G.G.G.G.G.G.G.G.G.G.G.G.G.G.G.G.G.G.G.G.G.G.G.G.G.G.G.G.G.G.G.D.x.x.x.x.x.x.x.x.x.F.G.G.G.G.G.G.G.G.G.G.G.G.G.G.G.",
"G.G.G.G.G.G.D.n.F.G.G.G.G.G.G.G.G.G.G.G.G.G.G.G.G.G.G.G.G.G.G.G.G.G.G.G.G.G.D.x.x.x.x.x.x.x.x.x.G.G.G.G.G.G.G.G.G.G.G.G.G.G.G.G.",
"G.G.G.F.n.x.x.x.n.G.G.G.G.G.G.G.G.G.H.K.G.G.G.G.G.G.G.G.G.G.G.G.G.G.G.G.G.G.n.x.x.x.x.x.x.x.x.x.G.G.G.G.G.G.G.G.G.G.G.G.G.G.G.G.",
"G.G.G.n.x.x.x.x.x.F.G.G.G.G.G.G.G.G.P.P.K.G.G.G.G.G.G.G.G.G.G.G.G.G.G.G.G.G.n.x.x.x.x.x.x.x.x.n.G.G.G.G.G.G.G.G.G.G.G.G.G.G.G.G.",
"G.G.G.D.x.x.x.x.x.n.G.G.G.G.G.G.G.L.P.P.P.L.G.G.G.G.G.G.G.G.G.G.G.G.G.G.G.G.G.G.G.F.F.D.D.n.n.n.G.G.G.G.G.G.G.G.G.G.G.G.G.G.G.G.",
"G.G.G.G.n.x.x.x.x.x.F.G.G.G.G.G.L.P.P.P.P.P.L.H.G.G.G.G.G.G.G.G.G.G.G.G.G.G.G.G.G.G.G.G.G.G.G.G.G.G.G.G.G.G.G.G.G.G.G.G.G.G.G.G.",
"G.G.G.G.D.x.x.n.D.G.G.G.G.G.G.L.P.P.P.P.P.P.P.P.H.G.G.G.G.G.G.G.G.G.G.G.G.G.G.G.G.G.G.G.G.G.G.G.G.G.G.G.G.G.G.G.G.G.G.G.G.G.G.G.",
"G.G.G.G.G.n.F.G.G.G.G.G.G.G.K.P.P.P.P.P.P.P.P.P.P.J.G.G.G.G.G.G.G.G.G.G.G.G.G.G.G.G.G.G.G.G.G.G.G.G.G.G.G.G.G.G.G.G.G.G.G.G.G.G.",
"G.G.G.G.G.G.G.G.G.G.G.G.G.K.P.P.P.P.P.P.P.P.P.P.P.P.G.G.G.G.G.G.G.G.G.G.G.G.G.G.G.G.G.G.G.G.G.G.G.G.G.G.G.G.G.G.G.G.G.G.G.G.G.G.",
"G.G.G.G.G.G.G.G.G.G.G.G.G.J.P.P.P.P.P.P.P.P.P.P.P.H.G.G.G.G.G.G.G.G.G.G.G.G.G.G.G.G.G.G.G.G.G.G.G.G.G.G.G.G.G.G.G.G.G.G.G.G.G.G.",
"G.G.G.G.G.G.G.G.G.G.G.G.G.G.J.P.P.P.P.P.P.P.P.P.J.G.G.G.G.G.G.G.G.G.G.G.G.G.G.G.G.G.G.G.G.G.G.G.G.G.G.G.G.G.G.G.G.G.G.G.G.G.G.G.",
"G.G.G.G.G.G.G.G.G.G.G.G.G.G.G.J.P.P.P.P.P.P.P.J.G.G.G.G.G.G.G.G.G.G.G.G.G.G.G.G.G.G.G.G.G.G.G.G.G.G.G.G.G.G.G.G.G.G.G.G.G.G.G.G.",
"G.G.G.G.G.G.G.G.G.G.G.G.G.G.G.G.H.P.P.P.P.P.J.G.G.G.G.G.G.G.G.G.G.G.G.G.G.G.G.G.G.G.G.G.G.G.G.G.G.G.G.G.G.G.G.G.G.G.G.G.G.G.G.G.",
"G.G.G.G.G.G.G.G.G.G.G.G.G.G.G.G.G.G.L.L.L.J.G.G.G.G.G.G.G.G.G.G.G.G.G.G.G.G.G.G.G.G.G.G.G.G.G.G.G.G.G.G.G.G.G.G.G.G.G.G.G.G.G.G.",
"G.G.G.G.G.G.G.G.G.G.G.G.G.A.t.J T M M M C D D F F F F F F F F F F F F F F F F F F F F F F F | X.d.M.G.G.G.G.G.G.G.G.G.G.G.G.G.G.",
"G.G.G.G.G.G.G.G.G.G.G.G.0.T M M M M M A F F F F F F F F F F F F F F F F F F F F F F F F F F F F F X.V.G.G.G.G.G.G.G.G.G.G.G.G.G.",
"G.G.G.G.G.G.G.G.G.G.G.B.Y M M M M M C F F F F F { ' ' ' ' ' ' ' ' ' ' ' ' ' ' ' ' ' ' ' ' _ F F F F p.G.G.G.G.G.G.G.G.G.G.G.G.G.",
"G.G.G.G.G.G.G.G.G.G.G.0.B M M M M M D F F F ! <.<.<.<.<.<.<.<.<.<.<.<.<.<.<.<.<.<.<.<.<.<.<.<.2.{ F | M.G.G.G.G.G.G.G.G.G.G.G.G.",
"G.G.G.G.G.G.G.G.G.G.F.&.M M M M M M D F F { <.<.<.<.<.<.<.<.<.<.<.<.<.<.<.<.<.<.<.<.<.<.<.<.<.<.E F F Z.G.G.G.G.G.G.G.G.G.G.G.G.",
"G.G.G.G.G.G.G.G.G.G.n.%.M M M M M M D F F _ 1.5.l.l.l.l.l.l.l.l.l.l.l.l.l.l.l.l.l.l.l.l.l.l.5.4.~ F F Z.G.G.G.G.G.G.G.G.G.G.G.G.",
"G.G.G.G.G.G.G.G.G.G.n.%.M M M M M M D F F { l.l.l.l.l.l.l.l.l.l.l.l.l.l.l.l.l.l.l.l.l.l.l.l.l.l.^ F F c.G.G.G.G.G.G.G.G.G.G.G.G.",
"G.G.G.G.G.G.G.G.G.G.x.%.M M M M M M D F F { l.l.l.l.5.>.:.,.l.l.l.l.l.l.l.l.l.l.4.:.:.5.l.l.l.l.^ F F 6.n.G.G.G.G.G.G.G.G.G.G.G.",
"G.G.G.G.G.G.G.G.G.F.x.%.M M M M M M D F F { l.l.l.5.@     & l.l.l.l.l.l.l.l.l.l.@.    X ;.l.l.l.^ F F 6.x.n.G.G.G.G.G.G.G.G.G.G.",
"G.G.G.G.G.G.G.G.G.n.x.%.M M M M M M D F F { l.l.l.x * j j @.l.l.l.l.l.l.l.l.l.l.>.j j - j 5.l.l.^ F F 6.x.n.G.G.G.G.G.G.G.G.G.G.",
"G.G.G.G.G.G.G.G.G.n.x.%.M M M M M M D F F { l.l.l.5.l.l.l.l.l.l.l.l.l.l.l.l.l.l.l.l.l.l.5.l.l.l.^ F F 6.n.G.G.G.G.G.G.G.G.G.G.G.",
"G.G.G.G.G.G.G.G.G.x.x.%.M M M M M M D F F { l.l.l.l.:.@   # <.l.l.l.l.l.l.l.l.l.4.& @ - ,.l.l.l.^ F F 6.G.G.G.G.G.G.G.G.G.G.G.G.",
"G.G.G.G.G.G.G.G.F.x.x.%.M M M M M M D F F { l.l.l.l.#     X =.l.l.l.l.l.l.l.l.l.=       j l.l.l.^ F F Z.G.G.G.G.G.G.G.G.G.G.G.G.",
"G.G.G.G.G.G.G.G.n.x.x.%.M M M M M M D F F { l.l.l.5.@       @.l.l.l.l.l.l.l.l.l.%       - l.l.l.^ F F Z.G.G.G.G.G.G.G.G.G.G.G.G.",
"G.G.G.G.G.G.G.G.F.D.n.%.M M M M M M D F F { l.l.l.l.x o . # <.l.5.5.5.5.5.5.5.l.,.O . o ;.l.l.l.^ F F Z.G.G.G.G.G.G.G.G.G.G.G.G.",
"G.G.G.G.G.G.G.G.G.G.G.*.M M M M M M D F F { l.l.l.l.l.-.@.,.l.=.* % $ $ $ $ & l l.>.@.:.l.l.l.l.^ F F Z.G.G.G.G.G.G.G.G.G.G.G.G.",
"G.G.G.G.G.G.G.G.G.G.G.*.M M M M M M D F F { l.l.l.l.l.l.l.l.l.z               $ l.l.l.l.l.l.l.l.^ F F Z.G.G.G.G.G.G.G.G.G.G.G.G.",
"G.G.G.G.G.G.G.G.G.G.G.*.M M M M M M D F F { l.l.l.l.l.l.l.l.l.5.$           X @.l.l.l.l.l.l.l.l.^ F F Z.G.G.G.G.G.G.G.G.G.G.G.G.",
"G.G.G.G.G.G.G.G.G.G.G.*.M M M M M M D F F { l.l.l.l.l.l.l.l.l.l.=.+       O z 5.l.l.l.l.l.l.l.l.^ F F Z.G.G.G.G.G.G.G.G.G.G.G.G.",
"D.D.G.G.G.G.G.G.G.G.G.*.M M M M M M D F F { l.l.l.l.l.l.l.l.l.l.l.>.l k l :.l.l.l.l.l.l.l.l.l.l.^ F F Z.G.G.G.G.G.G.G.G.G.F.F.F.",
"x.x.F.G.G.G.G.G.G.G.G.*.M M M M M M D F F { l.l.l.l.l.l.l.l.l.l.l.l.l.l.l.l.l.l.l.l.l.l.l.l.l.l.^ F F Z.G.G.G.G.G.G.G.G.F.x.x.x.",
"x.x.F.G.G.G.G.G.G.G.G.*.M M M M M M D F F { l.l.l.l.l.l.l.l.l.l.l.l.l.l.l.l.l.l.l.l.l.l.l.l.l.l.^ F F Z.G.G.G.G.G.G.G.G.G.x.x.x.",
"x.x.D.G.G.G.G.G.G.G.G.*.M M M M M M D F F F z.l.l.l.l.l.l.l.l.l.l.l.l.l.l.l.l.l.l.l.l.l.l.l.l.l. .F F Z.G.G.G.G.G.G.G.G.G.x.x.x.",
"x.x.n.G.G.G.G.G.G.B.f.V N M M M M M D F F F _ 2.k.k.k.k.k.k.k.k.k.k.k.k.k.k.k.k.k.k.k.k.k.k.k./ F F F Z.G.G.G.G.G.G.G.G.G.x.x.x.",
"x.n.n.G.G.G.G.G.A...A C N M M M M M D F F F F F F F F F F F F F F F F F F F F F F F F F F F F F F F F Z.G.G.G.G.G.G.G.G.G.n.x.x.",
"G.G.G.G.G.G.G.M.` D A C N M M M M M D F F F F F F F F F F F F F F F F F F F F F F F F F F F F F F F F r.G.G.G.G.G.G.G.G.G.F.F.F.",
"G.G.G.G.G.G.C.| F D A C N M M M M M D F F F F F F F [ [ [ S F F F F F F F F S [ [ [ F F F F F F F F F ..N.G.G.G.G.G.G.G.G.G.G.G.",
"G.G.G.G.G.G.d.F F D A Z M M M M M M D F F F F F F n 3 3 3 p F F F F F F F v < 1 1 2 #.F F F F F F F F A W B.G.G.G.G.G.G.G.G.G.G.",
"G.G.G.G.G.M.o.F F D D Z M M M M M M D F F F F F F U 3 3 3 i F F F F F F H ; g 5 5 4 : n F F F F F F F D S i.r.G.G.G.G.G.G.G.G.G.",
"G.G.G.G.G.q.F F F F D A M M M M M M D F F F F F F L 3 3 3 f R ) [ F F F p 1 q q q q w 2 S S F F F F F F F F F | A.G.G.G.G.G.G.G.",
"G.G.G.G.G.i.F F F F F D N M M M M M D F F F I #.#.h 3 3 3 3 3 3 : L F F t s q q q q r 3 t i b ) F F F F F F F F | S.G.G.G.G.G.G.",
"G.G.G.G.N.F F F F F F F A M M M M M D F F F i 3 3 3 3 3 3 3 3 3 3 K F F $.1 9 q q 0 a a r e : h S F F F F F F F F h.G.G.G.G.G.G.",
"G.G.G.G.r.F F F F F F F F M M M M M D F F F b 3 3 3 3 3 3 3 3 3 3 P F F ) > , 4 7 a a q q q 7 : J F F F F F F F F } G.G.G.G.G.G.",
"G.G.G.G.X.F F F F F F F F C M M M M D F F F U 3 3 3 3 3 3 ; d t p K F F F L u 2 2 3 6 q q q 8 s P F F F F F F F F F G.G.G.G.G.G.",
"G.G.G.G.F F F F F F F F F Z M M M M D F F F ) v U L f 3 3 2 K [ S F F F F F [ ( L < 7 q q q 8 a P F F F F F F F F X.G.G.G.G.G.G.",
"G.G.G.G.X.F F F F F F F F N M M M M D F F F F F F F y 3 3 2 L F F F F F F F F F F y 1 5 8 0 g > R F F F F F F F F 7.x.x.n.G.G.G.",
"G.G.G.G.e.} F F F F F F D M M M M M D F F F F F F F $.3 3 ; K F F F F F F F F F F J < : s , > m F F F F F F F F s.b.x.x.D.G.G.G.",
"G.G.G.G.G.g.F F F F F D V M M M M M D F F F F F F F L v v U S F F F F F F F F F F F R c h $.L F F F { h.X.X.p.9.v.x.x.x.D.G.G.G.",
"G.G.G.G.G.G.r.i.] ] h.e.J M M M M M C F F F F F F F F F F F F F F F F F F F F F F F F F F F F F F F i.C.G.G.G.x.x.x.x.x.F.G.G.G.",
"G.G.G.G.G.G.G.G.G.G.G.G.7.G M M M M M D F F F F F F F F F F F F F F F F F F F F F F F F F F F F F +.A.G.G.G.F.x.x.x.x.x.F.G.G.G.",
"G.G.G.G.G.G.G.G.G.G.G.G.G.B.t.B M M M M C F F F F F F F F F F F F F F F F F F F F F F F F F F { g.B.G.G.G.G.G.F.F.D.D.D.G.G.G.G.",
"G.G.G.H.J.J.K.H.G.G.G.G.G.G.G.G.G.G.G.G.F.n.n.x.x.x.9.} F F F ] G.G.+.F F F F j.G.G.G.G.G.G.G.G.G.G.G.G.G.G.G.G.G.G.G.G.G.G.G.G.",
"G.H.P.P.P.P.P.J.G.G.G.G.G.G.G.G.G.G.G.G.G.G.G.G.F.D.8.N N N C u.G.G.Q C M M M w.G.G.G.G.G.G.G.G.G.G.G.G.G.G.G.G.G.G.G.G.G.G.G.G.",
"G.G.P.P.P.P.P.J.G.G.G.G.G.G.G.G.G.G.G.G.G.G.G.G.G.Z.Q A A A N w.G.G.y.A A A A w.G.G.G.G.G.G.G.G.G.G.G.G.G.G.G.G.G.G.G.G.G.G.G.G.",
"G.G.K.P.P.P.P.K.G.G.G.G.G.G.G.G.G.G.G.G.G.G.G.C.d.F F F F F F s.B.d.F F F F F F a.m.D.F.F.G.G.G.G.G.G.G.G.G.G.G.G.G.G.G.G.G.G.G.",
"G.G.K.P.P.P.P.L.G.G.G.G.G.G.G.G.G.G.G.G.G.G.G.j.F F F F F F F F X.F F F F F F F F 3.v.x.x.x.x.n.n.G.G.G.G.G.G.G.G.G.G.G.G.G.G.G.",
"G.G.J.P.P.P.L.K.G.G.G.G.G.G.G.G.G.G.G.G.G.G.Z.} F F F F F F F F F F F F F F F F F { 6.x.x.x.x.x.n.G.G.G.G.G.G.G.G.G.G.G.G.G.G.G.",
"G.G.G.H.G.G.G.G.G.G.G.G.G.G.G.G.G.G.G.G.G.G.i.F F F F F F F F F F F F F F F F F F F a.x.x.x.x.x.n.G.G.G.G.G.G.G.G.G.G.G.G.G.G.G.",
"G.G.G.G.G.G.G.G.G.G.G.G.G.G.G.G.G.G.G.G.G.G.F F F F F F F F F F F F F F F F F F F F O.x.x.x.x.x.D.G.G.G.G.G.G.G.G.G.G.G.G.G.G.G."
};
