/* XPM */
static char *_66b216a28274b28ab6bf4ab7872f4ectvPYsSZ4Ur6g6dOY[] = {
/* columns rows colors chars-per-pixel */
"64 64 38 1 ",
"  c #A7723B",
". c #A7723C",
"X c #A9733C",
"o c #AB743D",
"O c #AC753D",
"+ c #B0783F",
"@ c #A47340",
"# c #A47441",
"$ c #A07749",
"% c #A3794B",
"& c #A0794E",
"* c #A87D4E",
"= c #B27940",
"- c #B77D42",
"; c #B97F43",
": c #A07B51",
"> c #9D805B",
", c #9C815E",
"< c #BB8044",
"1 c #BB8045",
"2 c #B78148",
"3 c #AD8A5F",
"4 c #B18553",
"5 c #B08858",
"6 c #98886C",
"7 c #AC8B62",
"8 c #A5906E",
"9 c #A19377",
"0 c #90978A",
"q c #90988C",
"w c #959C8F",
"e c #8D9E98",
"r c #8C9E99",
"t c #929E94",
"y c #8EA19C",
"u c #8AA3A3",
"i c #8AA3A4",
"p c #89A4A6",
/* pixels */
"py973211111111111111111111111111111111111111111111111111111338ti",
"y51111111111111111111111111111111111111111111111111111111111112w",
"82=OO.                                                     oO+;3",
"4O                                                            X-",
"*.                                                             O",
"%    =;111111111111X     -11111111111111111111111111111111-X    ",
"%    ;1111111111111X     ;111111111111111111111111111111111X    ",
"%    ;1111111111111X     ;111111111111111111111111111111111X    ",
"%    ;1111111111111X     ;111111111111111111111111111111111X    ",
"%    ;1111111111111X     ;111111111111111111111111111111111X    ",
"%    ;111111111111;X     ;111111111111111111111111111111111X    ",
"%    ;111111111111;X     ;111111111111111111111111111111111X    ",
"%    -1111111111111X     ;111111111111111111111111111111111X    ",
"%    -1111111111111X     ;111111111111111111111111111111111X    ",
"%    ;1111111111111X     ;111111111111111111111111111111111X    ",
"%    ;1111111111111X     ;111111111111111111111111111111111X    ",
"%    ;1111111111111X     ;111111111111111111111111111111111X    ",
"%    ;1111111111111X     ;111111111111111111111111111111111X    ",
"%    ;1111111111111X     ;11111111111111111111111111111111;X    ",
"%    ;1111111111111X     -11111111111111111111111111111111;X    ",
"%    ;1111111111111X     ;111111111111111111111111111111111X    ",
"%    ;1111111111111X     ;111111111111111111111111111111111X    ",
"%    ;1111111111111X     ;111111111111111111111111111111111X    ",
"%    ;1111111111111X     ;111111111111111111111111111111111X    ",
"%    -1111111111111X     ;111111111111111111111111111111111X    ",
"%    -1111111111111X     ;111111111111111111111111111111111X    ",
"%    ;111111111111;X     ;111111111111111111111111111111111X    ",
"%    ;111111111111;X     ;111111111111111111111111111111111X    ",
"%    ;1111111111111X     ;111111111111111111111111111111;;;X    ",
"%                                                               ",
"%                                                               ",
"%                                                               ",
"%                                                               ",
"%                                                               ",
"%                                                               ",
"$    -111111111111111111111111111111111X     -1;11111111111X    ",
"$    ;111111111111111111111111111111111X     ;1111111111111X    ",
"$    ;111111111111111111111111111111111X     ;1111111111111X    ",
"$    -111111111111111111111111111111111X     ;1111111111111X    ",
"$    -111111111111111111111111111111111X     ;1111111111111X    ",
"%    ;111111111111111111111111111111111X     -;111111111111X    ",
"%    ;111111111111111111111111111111111X     -1111111111111X    ",
"%    ;111111111111111111111111111111111X     ;111111111111;X    ",
"%    ;111111111111111111111111111111111X     ;111111111111;X    ",
"%    ;111111111111111111111111111111111X     ;1111111111111X    ",
"%    ;111111111111111111111111111111111X     ;1111111111111X    ",
"%    ;111111111111111111111111111111111X     ;1111111111111X    ",
"%    ;111111111111111111111111111111111X     ;1111111111111X    ",
"%    -111111111111111111111111111111111X     -1111111111111X    ",
"%    -111111111111111111111111111111111X     -1111111111111X    ",
"%    ;111111111111111111111111111111111X     ;1111111111111X    ",
"%    ;111111111111111111111111111111111X     ;1111111111111X    ",
"%    ;111111111111111111111111111111111X     ;1111111111111X    ",
"%    ;111111111111111111111111111111111X     ;1111111111111X    ",
"%    ;111111111111111111111111111111111X     ;111111111111;X    ",
"%    ;111111111111111111111111111111111X     ;111111111111;X    ",
"%    ;111111111111111111111111111111111X     ;1111111111111X    ",
"%    ;111111111111111111111111111111111X     ;1111111111111X    ",
"%    -111111111111111111111111111111111X     ;;;1111111111;X    ",
"%                                                               ",
">.                                                             %",
"6#                                                             ,",
"r&.                                                           @0",
"pr,.                                                         :qu"
};
