/* XPM */
static char *result[] = {
/* columns rows colors chars-per-pixel */
"64 64 76 1 ",
"  c #E0B400",
". c #E1B500",
"X c #E2B600",
"o c #E4B700",
"O c #E5B800",
"+ c #E6BA00",
"@ c #E7BA00",
"# c #E8BA00",
"$ c #E8BB00",
"% c #E9BB00",
"& c #EABC00",
"* c #D5BE3B",
"= c #F8C600",
"- c #F9C700",
"; c #FBC900",
": c #FCC900",
"> c #FDCA00",
", c #FECB00",
"< c #FDCB02",
"1 c #FFCC00",
"2 c #FECC01",
"3 c #FFCC01",
"4 c #FFCC02",
"5 c #FFCD03",
"6 c #FACA05",
"7 c #FBCA06",
"8 c #FBCB06",
"9 c #FFCD04",
"0 c #FFCD06",
"q c #F5C80F",
"w c #F8C90A",
"e c #FBCC0C",
"r c #EAC41D",
"t c #FFCF11",
"y c #FFD013",
"u c #FFD015",
"i c #FFD016",
"p c #FFD117",
"a c #FFD21F",
"s c #E6C323",
"d c #E3C327",
"f c #E0C22C",
"g c #FBD124",
"h c #FFD429",
"j c #FFD42B",
"k c #D1BC41",
"l c #FEDA4A",
"z c #FFDB4A",
"x c #FAD94F",
"c c #FDDA4D",
"v c #FDDB52",
"b c #FDDB53",
"n c #FEDB52",
"m c #FFDC51",
"M c #FEDC52",
"N c #FADA54",
"B c #FBDA54",
"V c #FADA55",
"C c #F1D55A",
"Z c #F5D758",
"A c #DFCD67",
"S c #D5C86F",
"D c #DECD68",
"F c #DECC69",
"G c #D9CA6C",
"H c #CAC277",
"J c #C7C179",
"K c #9DAB8A",
"L c #9AAA8E",
"P c #99AA90",
"I c #96AB9C",
"U c #99AC9B",
"Y c #9AAC9A",
"T c #89A4A5",
"R c #8AA4A4",
"E c #89A4A6",
/* pixels */
"EIJFDVBBBBBBBBBBBBBBBBBBBBBBBBBBBBBBBBBNNNNNNNNNBBBBBBBBBBBADHUE",
"ICbnMmmmmmmmmmmmmmmmmmmmmmmmmmmmmmmmmmmmmmmmmmmmmmmmmmmmmmmMMvZY",
"Scjpi955555555555555555555555555555555555555555555555555555uihzG",
"xy433111111111111111111111111111111111111111111111111111111333tl",
"g41111111111111111111111111111111111111111111111111111111111113a",
"e111111111111111111111111111111111111111111111111111111111111110",
"8111111111111111111111111111111111111111111111111111111111111111",
"81111111-$$$&-111111111111111111111111111111111111-$$$&-11111111",
"8111111>O    o:1111111111111111111111111111111111>O    o:1111111",
"8111111&      %,111111111111111111111111111111111&      %,111111",
"8111111.       ,111111111111111111111111111111111.       ,111111",
"8111111.       ,111111111111111111111111111111111.       ,111111",
"8111111#      +,111111111111111111111111111111111#      +,111111",
"8111111-X    .=1111111111111111111111111111111111-X    .=1111111",
"81111111:@  +;111111111111111111111111111111111111:@  +;11111111",
"811111111,,,,11111111111111111111111111111111111111,,,,111111111",
"8111111111111111111111111111111111111111111111111111111111111111",
"8111111111111111111111111111111111111111111111111111111111111111",
"8111111111111111111111111111111111111111111111111111111111111111",
"8111111111111111111111111111111111111111111111111111111111111111",
"8111111111111111111111111111111111111111111111111111111111111111",
"8111111111111111111111111111111111111111111111111111111111111111",
"8111111111111111111111111111111111111111111111111111111111111111",
"8111111111111111111111111111111111111111111111111111111111111111",
"8111111111111111111111111111111111111111111111111111111111111111",
"8111111111111111111111111111111111111111111111111111111111111111",
"8111111111111111111111111111111111111111111111111111111111111111",
"8111111111111111111111111111111111111111111111111111111111111111",
"8111111111111111111111111111111111111111111111111111111111111111",
"8111111111111111111111111111111111111111111111111111111111111111",
"8111111111111111111111111111111111111111111111111111111111111111",
"8111111111111111111111111111111111111111111111111111111111111111",
"8111111111111111111111111111111111111111111111111111111111111111",
"8111111111111111111111111111111111111111111111111111111111111111",
"7111111111111111111111111111111111111111111111111111111111111111",
"6111111111111111111111111111111111111111111111111111111111111111",
"6111111111111111111111111111111111111111111111111111111111111111",
"6111111111111111111111111111111111111111111111111111111111111111",
"6111111111111111111111111111111111111111111111111111111111111111",
"6111111111111111111111111111111111111111111111111111111111111111",
"8111111111111111111111111111111111111111111111111111111111111111",
"8111111111111111111111111111111111111111111111111111111111111111",
"8111111111111111111111111111111111111111111111111111111111111111",
"8111111111111111111111111111111111111111111111111111111111111111",
"8111111111111111111111111111111111111111111111111111111111111111",
"8111111111111111111111111111111111111111111111111111111111111111",
"8111111111111111111111111111111111111111111111111111111111111111",
"8111111111111111111111111111111111111111111111111111111111111111",
"8111111111111111111111111111111111111111111111111111111111111111",
"81111111-$$$&-111111111111111111111111111111111111-$$$&-11111111",
"8111111>O    o:1111111111111111111111111111111111>O    o:1111111",
"8111111&      %,111111111111111111111111111111111&      %,111111",
"8111111.       ,111111111111111111111111111111111.       ,111111",
"8111111.       ,111111111111111111111111111111111.       ,111111",
"8111111#      +,111111111111111111111111111111111#      +,111111",
"8111111-X    .=1111111111111111111111111111111111-X    .=1111111",
"81111111:@  +;111111111111111111111111111111111111:@  +;11111111",
"811111111,,,,11111111111111111111111111111111111111,,,,111111111",
"8111111111111111111111111111111111111111111111111111111111111111",
"8111111111111111111111111111111111111111111111111111111111111111",
"s21111111111111111111111111111111111111111111111111111111111111r",
"k<1111111111111111111111111111111111111111111111111111111111111*",
"Pq111111111111111111111111111111111111111111111111111111111111wK",
"TLf2111111111111111111111111111111111111111111111111111111111dKR"
};
