/* XPM */
static char *b2e5ff95d291437c85d40b0365b1c8d7C9QffkGt2VlkNlk9[] = {
/* columns rows colors chars-per-pixel */
"64 64 75 1 ",
"  c #E0B400",
". c #E4B700",
"X c #E6B900",
"o c #EDBE00",
"O c #F1C100",
"+ c #F3C300",
"@ c #F6C500",
"# c #F8C600",
"$ c #FECB00",
"% c #FDCC02",
"& c #FFCD05",
"* c #F5C80E",
"= c #F8CA09",
"- c #FDCD09",
"; c #FFCE0D",
": c #EBC51C",
"> c #F1C814",
", c #FFD118",
"< c #FFD11A",
"1 c #FFD21E",
"2 c #DDC130",
"3 c #E6C323",
"4 c #FDD326",
"5 c #FED635",
"6 c #FED73D",
"7 c #9FA573",
"8 c #9AA379",
"9 c #B4B36A",
"0 c #A0A775",
"q c #A2A977",
"w c #A3AA78",
"e c #A4AB79",
"r c #A6AD7B",
"t c #A7AE7C",
"y c #FBDB53",
"u c #FCDB53",
"i c #FADA55",
"p c #F3D659",
"a c #D3C76F",
"s c #D7C96E",
"d c #CCC376",
"f c #E4CF62",
"g c #E7D162",
"h c #7F989A",
"j c #80999B",
"k c #819B9D",
"l c #839D9F",
"z c #9CAB8B",
"x c #9CAA8C",
"c c #97A992",
"v c #96AA9D",
"b c #98AB9B",
"n c #A0AA80",
"m c #A2AD82",
"M c #A7AF80",
"N c #A1AC85",
"B c #A7B28D",
"V c #A2B093",
"C c #849EA0",
"Z c #85A0A2",
"A c #87A1A3",
"S c #87A2A4",
"D c #8BA5A3",
"F c #8DA6A3",
"G c #88A3A5",
"H c #89A4A6",
"J c #8CA5A4",
"K c #8AA6A8",
"L c #8CA8AA",
"P c #8FABAD",
"I c #8FACAE",
"U c #93ACA8",
"Y c #90ACAE",
"T c #97B1AD",
"R c #92AFB1",
/* pixels */
"HHHHHHHHHHHHHHHHHHHHHHHHHHHHHHHHHHHHHHZhhhhhhhhhZHHHHHHHHHHHHHHH",
"HHHHHHHHHHHHHHHHHHHHHHHHHHHHHHHHHHHHHHChhhhhhhhhSHHHHHHHHHHHHHHH",
"HHHHHGCjZHHHHHHHHHHHHHHHHHHHHHHHHHHHHHChhhhhhhhhHHHHHHHHHHHHHHHH",
"HHHSlhhhkHHHHHHHHHKPHHHHHHHHHHHHHHHHHHlhhhhhhhhhHHHHHHHHHHHHHHHH",
"HHHjhhhhhZHHHHHHHHRRIHHHHHHHHHHHHHHHHHkhhhhhhhhjHHHHHHHHHHHHHHHH",
"HHHChhhhhkHHHHHHHYRRRYHHHHHHHHHHHHHHHHHHGZZCClklHHHHHHHHHHHHHHHH",
"HHHHjhhhhhSHHHHHYRRRRRYKHHHHHHHHHHHHHHHHHHHHHHHHHHHHHHHHHHHHHHHH",
"HHHHChhjCGHHHHHYRRRRRRRRKHHHHHHHHHHHHHHHHHHHHHHHHHHHHHHHHHHHHHHH",
"HHHHHlZHHHHHHHPRRRRRRRRRRLHHHHHHHHHHHHHHHHHHHHHHHHHHHHHHHHHHHHHH",
"HHHHHHHHHHHJFUTTTTTTTTTTTTFFFFFFFFFFFFFFFFFFFFFFFFFFHHHHHHHHHHHH",
"HHHHHHHHHHVsgiuuuuuuuuuuuuuuuuuuuuuuuyyyyyyuuuuuuupgdvHHHHHHHHHH",
"HHHHHHHHHbf54,,,,,,,,,,,,,,,,,,,,,,,,,,,,,,,,,,,,,146aHHHHHHHHHH",
"HHHHHHHHHB4%%%%%%%%%%%%%%%%%%%%%%%%%%%%%%%%%%%%%%%%%&5HHHHHHHHHH",
"HHHHHHHHHM-%%%%%%%%%%%%%%%%%%%%%%%%%%%%%%%%%%%%%%%%%%;HHHHHHHHHH",
"HHHHHHHHHt%%%%%%$$$%%%%%%%%%%%%%%%%%%%%%%%%%%$$$%%%%%%HHHHHHHHHH",
"HHHHHHHHHt%%%%%O..X#%%%%%%%%%%%%%%%%%%%%%%%%O..X@%%%%%HHHHHHHHHH",
"HHHHHHHHHt%%%%#    X$%%%%%%%%%%%%%%%%%%%%%%#.   X$%%%%HHHHHHHHHH",
"HHHHHHHHHt%%%%O     $%%%%%%%%%%%%%%%%%%%%%%@     $%%%%HHHHHHHHHH",
"HHHHHHHHHt%%%%@     $%%%%%%%%%%%%%%%%%%%%%%#    .$%%%%HHHHHHHHHH",
"HHHHHHHHHt%%%%$o   O%%%%%%%%%%%%%%%%%%%%%%%$o  .O%%%%%HHHHHHHHHH",
"HHHHHHHHHt%%%%%$#@#%%%%%%%%%%%%%%%%%%%%%%%%%$#@#%%%%%%HHHHHHHHHH",
"HHHHHHHHHt%%%%%%%%%%%%%%%%%%%%%%%%%%%%%%%%%%%%%%%%%%%%HHHHHHHHHH",
"HHHHHHHHHr%%%%%%%%%%%%%%%%%%%%%%%%%%%%%%%%%%%%%%%%%%%%HHHHHHHHHH",
"HHHHHHHHHe%%%%%%%%%%%%%%%%%%%%%%%%%%%%%%%%%%%%%%%%%%%%GHHHHHHHHH",
"HHHHHHHHHq%%%%%%%%%%%%%%%%%%%%%%%%%%%%%%%%%%%%%%%%%%%%HHHHHHHHHH",
"HHHHHHHHH0%%%%%%%%%%%%%%%%%%%%%%%%%%%%%%%%%%%%%%%%%%%%HHHHHHHHHH",
"HHHHHHHHG7%%%%%%%%%%%%%%%%%%%%%%%%%%%%%%%%%%%%%%%%%%%%HHHHHHHHHH",
"HHHHHHHHZ7%%%%%%%%%%%%%%%%%%%%%%%%%%%%%%%%%%%%%%%%%%%%HHHHHHHHHH",
"HHHHHHHHl0%%%%%%%%%%%%%%%%%%%%%%%%%%%%%%%%%%%%%%%%%%%%HHHHHHHHHH",
"HHHHHHHHZw%%%%%%%%%%%%%%%%%%%%%%%%%%%%%%%%%%%%%%%%%%%%HHHHHHHHHH",
"HHHHHHHHHt%%%%%%%%%%%%%%%%%%%%%%%%%%%%%%%%%%%%%%%%%%%%HHHHHHHHHH",
"HHHHHHHHHt%%%%%%%%%%%%%%%%%%%%%%%%%%%%%%%%%%%%%%%%%%%%HHHHHHHHHH",
"HHHHHHHHHt%%%%%%%%%%%%%%%%%%%%%%%%%%%%%%%%%%%%%%%%%%%%HHHHHHHHHH",
"HHHHHHHHHt$%%%%%%%%%%%%%%%%%%%%%%%%%%%%%%%%%%%%%%%%%%%HHHHHHHHHH",
"CCHHHHHHHt$%%%%%%%%%%%%%%%%%%%%%%%%%%%%%%%%%%%%%%%%%%%HHHHHHGZZZ",
"hhZHHHHHHt$%%%%%%%%%%%%%%%%%%%%%%%%%%%%%%%%%%%%%%%%%%%HHHHHHZhhh",
"hhZHHHHHHt$%%%%%%%%%%%%%%%%%%%%%%%%%%%%%%%%%%%%%%%%%%%HHHHHHGhhh",
"hhCHHHHHHt$%%%%%%%%%%%%%%%%%%%%%%%%%%%%%%%%%%%%%%%%%%%HHHHHHHhhh",
"hhlHHHHHHt%%%%%%%%%%%%%%%%%%%%%%%%%%%%%%%%%%%%%%%%%%%%HHHHHHHhhh",
"hjlHHHHHHt%%%%%%%%%%%%%%%%%%%%%%%%%%%%%%%%%%%%%%%%%%%%HHHHHHHkhh",
"HHHHHHHHHt%%%%%%%%%%%%%%%%%%%%%%%%%%%%%%%%%%%%%%%%%%%%HHHHHHHZZZ",
"HHHHHHHHHt%%%%%%%%%%%%%%%%%%%%%%%%%%%%%%%%%%%%%%%%%%%%HHHHHHHHHH",
"HHHHHHHHHt%%%%%%%%%%%%%%%%%%%%%%%%%%%%%%%%%%%%%%%%%%%%HHHHHHHHHH",
"HHHHHHHHHt%%%%%%%%%%%%%%%%%%%%%%%%%%%%%%%%%%%%%%%%%%%%HHHHHHHHHH",
"HHHHHHHHHt%%%%%OXXX#%%%%%%%%%%%%%%%%%%%%%%%%OXXX#%%%%%HHHHHHHHHH",
"HHHHHHHHHt%%%%#    X$%%%%%%%%%%%%%%%%%%%%%%#.   X$%%%%HHHHHHHHHH",
"HHHHHHHHHt%%%%O     $%%%%%%%%%%%%%%%%%%%%%%@     $%%%%HHHHHHHHHH",
"HHHHHHHHHt%%%%@    .$%%%%%%%%%%%%%%%%%%%%%%@     $%%%%HHHHHHHHHH",
"HHHHHHHHHt%%%%$o   O%%%%%%%%%%%%%%%%%%%%%%%$o   O%%%%%HHHHHHHHHH",
"HHHHHHHHHt%%%%%$@@#%%%%%%%%%%%%%%%%%%%%%%%%%$@@@%%%%%%HZZZHHHHHH",
"HHHHHHHHHt%%%%%%%%%%%%%%%%%%%%%%%%%%%%%%%%%%%%%%%%%%%%HkhhhhkHHH",
"HHHHHHHHHM=%%%%%%%%%%%%%%%%%%%%%%%%%%%%%%%%%%%%%%%%%%*HjhhhhCHHH",
"HHHHHHHHHx:%%%%%%%%%%%%%%%%%%%%%%%%%%%%%%%%%%%%%%%%%%2HhhhhhCHHH",
"HHHHHHHHHD9>%%%%%%%%%%%%%%%%%%%%%%%%%%%%%%%%%%%%%%%%3NGhhhhhZHHH",
"HHHHHHHHHHDzmmmmmn8888888888mmmmmmmmmmmmmmmmmmmmmmmmcHZhhhhhZHHH",
"HHHHHHHHHHHHHHHHHCjjjjjjjjhkHHHHHHHHHHHHHHHHHHHHHHHHHHGZZCCCHHHH",
"HHHKLLIKHHHHHHHHHHHGZlkhhhhlHHHHHHHHHHHHHHHHHHHHHHHHHHHHHHHHHHHH",
"HKRRRRRLHHHHHHHHHHHHHHHHZCkZHHHHHHHHHHHHHHHHHHHHHHHHHHHHHHHHHHHH",
"HHRRRRRLHHHHHHHHHHHHHHHHHHHHHHHHHHHHHHHHHHHHHHHHHHHHHHHHHHHHHHHH",
"HHIRRRRIHHHHHHHHHHHHHHHHHHHHHHHHHHHHHHHlklCZZHHHHHHHHHHHHHHHHHHH",
"HHPRRRRYHHHHHHHHHHHHHHHHHHHHHHHHHHHHHHHjhhhhhhhklHHHHHHHHHHHHHHH",
"HHLRRRYIHHHHHHHHHHHHHHHHHHHHHHHHHHHHHHHhhhhhhhhhkHHHHHHHHHHHHHHH",
"HHHKHHHHHHHHHHHHHHHHHHHHHHHHHHHHHHHHHHHhhhhhhhhhlHHHHHHHHHHHHHHH",
"HHHHHHHHHHHHHHHHHHHHHHHHHHHHHHHHHHHHHHZhhhhhhhhhCHHHHHHHHHHHHHHH"
};
